<?xml version="1.0" encoding="UTF-8"?> <svg xmlns="http://www.w3.org/2000/svg" xmlns:xlink="http://www.w3.org/1999/xlink" version="1.1" id="Livello_1" x="0px" y="0px" viewBox="0 0 782.3 783.7" style="enable-background:new 0 0 782.3 783.7;" xml:space="preserve"> <style type="text/css"> .st0{fill:#FFFFFF;} .st1{fill:url(#SVGID_12_);} .st2{fill:url(#SVGID_13_);} .st3{fill:url(#SVGID_14_);} .st4{fill:url(#SVGID_15_);} .st5{fill:url(#SVGID_16_);} .st6{fill:url(#SVGID_17_);} .st7{fill:url(#SVGID_18_);} .st8{fill:url(#SVGID_22_);} .st9{fill:url(#SVGID_23_);} .st10{fill:url(#SVGID_24_);} .st11{fill:url(#SVGID_25_);} .st12{fill:url(#SVGID_26_);} .st13{fill:url(#SVGID_27_);} .st14{fill:url(#SVGID_28_);} .st15{fill:url(#SVGID_29_);} .st16{fill:url(#SVGID_30_);} .st17{fill:url(#SVGID_31_);} .st18{fill:url(#SVGID_32_);} .st19{fill:url(#SVGID_33_);} .st20{fill:url(#SVGID_34_);} .st21{clip-path:url(#SVGID_36_);fill:url(#SVGID_37_);} .st22{fill-rule:evenodd;clip-rule:evenodd;fill:#1C4879;} .st23{fill-rule:evenodd;clip-rule:evenodd;fill:#E73444;} .st24{fill:url(#SVGID_38_);} .st25{fill:url(#SVGID_39_);} .st26{fill:url(#SVGID_40_);} .st27{fill:url(#SVGID_41_);} .st28{fill:#E73444;} .st29{fill:#1C4879;} .st30{fill:#FFFFFF;stroke:url(#SVGID_42_);stroke-width:2;stroke-miterlimit:10;} .st31{fill:url(#SVGID_43_);} .st32{fill:url(#SVGID_44_);} .st33{fill:url(#SVGID_45_);} .st34{fill:url(#SVGID_46_);} .st35{fill:url(#SVGID_47_);} .st36{fill:url(#SVGID_48_);} .st37{fill:url(#SVGID_49_);} .st38{fill:url(#SVGID_50_);} .st39{fill:url(#SVGID_51_);} .st40{fill:url(#SVGID_52_);} .st41{fill:url(#SVGID_53_);} .st42{fill:url(#SVGID_54_);} .st43{fill:url(#SVGID_55_);} .st44{fill:url(#SVGID_56_);} .st45{fill:url(#SVGID_57_);} .st46{fill:url(#SVGID_58_);} .st47{fill:url(#SVGID_59_);} .st48{fill:url(#SVGID_60_);} .st49{fill:url(#SVGID_61_);} .st50{clip-path:url(#SVGID_63_);fill:url(#SVGID_64_);} .st51{fill:url(#SVGID_65_);} .st52{fill:url(#SVGID_66_);} .st53{fill:url(#SVGID_67_);} .st54{fill:url(#SVGID_68_);} </style> <g> <g> <circle class="st0" cx="439.8" cy="-528.8" r="375.6"></circle> <linearGradient id="SVGID_12_" gradientUnits="userSpaceOnUse" x1="62.6812" y1="-528.799" x2="816.8619" y2="-528.799"> <stop offset="0" style="stop-color:#1C3761"></stop> <stop offset="0.1512" style="stop-color:#3C375B"></stop> <stop offset="0.4797" style="stop-color:#763446"></stop> <stop offset="0.9578" style="stop-color:#C8181A"></stop> <stop offset="0.9816" style="stop-color:#CC1517"></stop> </linearGradient> <path class="st1" d="M439.8-151.7c-50.9,0-100.3-10-146.8-29.6c-44.9-19-85.2-46.2-119.9-80.8s-61.8-75-80.8-119.9 c-19.7-46.5-29.6-95.9-29.6-146.8s10-100.3,29.6-146.8c19-44.9,46.2-85.2,80.8-119.9s75-61.8,119.9-80.8 c46.5-19.7,95.9-29.6,146.8-29.6s100.3,10,146.8,29.6c44.9,19,85.2,46.2,119.9,80.8s61.8,75,80.8,119.9 c19.7,46.5,29.6,95.9,29.6,146.8s-10,100.3-29.6,146.8c-19,44.9-46.2,85.2-80.8,119.9s-75,61.8-119.9,80.8 C540.1-161.7,490.7-151.7,439.8-151.7z M439.8-902.9c-206.3,0-374.1,167.8-374.1,374.1c0,206.3,167.8,374.1,374.1,374.1 c206.3,0,374.1-167.8,374.1-374.1C813.9-735.1,646-902.9,439.8-902.9z"></path> </g> <g> <g> <linearGradient id="SVGID_13_" gradientUnits="userSpaceOnUse" x1="182.3047" y1="-665.2853" x2="309.8709" y2="-665.2853" gradientTransform="matrix(1.0324 1.773184e-02 1.963874e-02 1.0108 2.7352 -12.8486)"> <stop offset="0" style="stop-color:#1C3761"></stop> <stop offset="0.1512" style="stop-color:#3C375B"></stop> <stop offset="0.4797" style="stop-color:#763446"></stop> <stop offset="0.9578" style="stop-color:#C8181A"></stop> <stop offset="0.9816" style="stop-color:#CC1517"></stop> </linearGradient> <polygon class="st2" points="309.4,-641.9 177.2,-718.4 178.1,-720 310.3,-643.4 "></polygon> </g> <g> <linearGradient id="SVGID_14_" gradientUnits="userSpaceOnUse" x1="211.6833" y1="-658.7211" x2="480.2618" y2="-658.7211" gradientTransform="matrix(0.9975 -4.278130e-03 1.293082e-02 0.9924 -26.0462 14.3551)"> <stop offset="0" style="stop-color:#1C3761"></stop> <stop offset="0.1512" style="stop-color:#3C375B"></stop> <stop offset="0.4797" style="stop-color:#763446"></stop> <stop offset="0.9578" style="stop-color:#C8181A"></stop> <stop offset="0.9816" style="stop-color:#CC1517"></stop> </linearGradient> <polygon class="st3" points="181.1,-409.3 179.6,-410.2 440,-872.3 441.5,-871.5 "></polygon> </g> <g> <linearGradient id="SVGID_15_" gradientUnits="userSpaceOnUse" x1="426.0475" y1="-638.2414" x2="690.3535" y2="-638.2414" gradientTransform="matrix(1.0017 1.048703e-02 -4.448969e-03 1.0052 9.3439 -5.024)"> <stop offset="0" style="stop-color:#1C3761"></stop> <stop offset="0.1512" style="stop-color:#3C375B"></stop> <stop offset="0.4797" style="stop-color:#763446"></stop> <stop offset="0.9578" style="stop-color:#C8181A"></stop> <stop offset="0.9816" style="stop-color:#CC1517"></stop> </linearGradient> <polygon class="st4" points="701.2,-409.2 440,-871.5 441.5,-872.3 702.7,-410.1 "></polygon> </g> <g> <linearGradient id="SVGID_16_" gradientUnits="userSpaceOnUse" x1="178.4936" y1="-411.1455" x2="700.1297" y2="-411.1455" gradientTransform="matrix(1.0001 0 0 1 1.8337 1.3692)"> <stop offset="0" style="stop-color:#1C3761"></stop> <stop offset="0.1512" style="stop-color:#3C375B"></stop> <stop offset="0.4797" style="stop-color:#763446"></stop> <stop offset="0.9578" style="stop-color:#C8181A"></stop> <stop offset="0.9816" style="stop-color:#CC1517"></stop> </linearGradient> <rect x="180.3" y="-410.7" class="st5" width="521.7" height="1.8"></rect> </g> <g> <linearGradient id="SVGID_17_" gradientUnits="userSpaceOnUse" x1="193.6113" y1="-507.2078" x2="195.3655" y2="-507.2078" gradientTransform="matrix(1 -3.263917e-03 3.300352e-03 1.0112 -14.7054 -53.3629)"> <stop offset="0" style="stop-color:#1C3761"></stop> <stop offset="0.1512" style="stop-color:#3C375B"></stop> <stop offset="0.4797" style="stop-color:#763446"></stop> <stop offset="0.9578" style="stop-color:#C8181A"></stop> <stop offset="0.9816" style="stop-color:#CC1517"></stop> </linearGradient> <polygon class="st6" points="177.7,-414.5 176.7,-719.2 178.5,-719.2 179.5,-414.5 "></polygon> </g> <g> <linearGradient id="SVGID_18_" gradientUnits="userSpaceOnUse" x1="457.481" y1="-787.3764" x2="718.6066" y2="-787.3764" gradientTransform="matrix(0.9929 -1.053151e-02 2.187188e-03 0.9975 -10.7903 -3.9601)"> <stop offset="0" style="stop-color:#1C3761"></stop> <stop offset="0.1512" style="stop-color:#3C375B"></stop> <stop offset="0.4797" style="stop-color:#763446"></stop> <stop offset="0.9578" style="stop-color:#C8181A"></stop> <stop offset="0.9816" style="stop-color:#CC1517"></stop> </linearGradient> <polygon class="st7" points="700.3,-719.9 441.5,-869.8 442.4,-871.3 701.1,-721.4 "></polygon> </g> <g> <linearGradient id="SVGID_22_" gradientUnits="userSpaceOnUse" x1="569.2242" y1="-679.818" x2="697.0123" y2="-679.818"> <stop offset="0" style="stop-color:#1C3761"></stop> <stop offset="0.1512" style="stop-color:#3C375B"></stop> <stop offset="0.4797" style="stop-color:#763446"></stop> <stop offset="0.9578" style="stop-color:#C8181A"></stop> <stop offset="0.9816" style="stop-color:#CC1517"></stop> </linearGradient> <polygon class="st8" points="570.1,-642.5 569.2,-644 696.1,-717.1 697,-715.6 "></polygon> </g> <g> <linearGradient id="SVGID_23_" gradientUnits="userSpaceOnUse" x1="426.7989" y1="-348.0101" x2="687.7091" y2="-348.0101" gradientTransform="matrix(0.9972 5.456774e-03 -2.309229e-03 0.9991 15.5992 8.5181)"> <stop offset="0" style="stop-color:#1C3761"></stop> <stop offset="0.1512" style="stop-color:#3C375B"></stop> <stop offset="0.4797" style="stop-color:#763446"></stop> <stop offset="0.9578" style="stop-color:#C8181A"></stop> <stop offset="0.9816" style="stop-color:#CC1517"></stop> </linearGradient> <polygon class="st9" points="442.7,-261.9 441.8,-263.4 701.5,-410.4 702.4,-408.9 "></polygon> </g> <linearGradient id="SVGID_24_" gradientUnits="userSpaceOnUse" x1="-2235.7856" y1="5956.6919" x2="-2207.3552" y2="5956.6919" gradientTransform="matrix(-1 0 0 -1 -1519.636 5237.4102)"> <stop offset="0" style="stop-color:#1C3761"></stop> <stop offset="0.1512" style="stop-color:#3C375B"></stop> <stop offset="0.4797" style="stop-color:#763446"></stop> <stop offset="0.9578" style="stop-color:#C8181A"></stop> <stop offset="0.9816" style="stop-color:#CC1517"></stop> </linearGradient> <ellipse class="st10" cx="701.9" cy="-719.3" rx="14.2" ry="14.3"></ellipse> <linearGradient id="SVGID_25_" gradientUnits="userSpaceOnUse" x1="-2342.0813" y1="6141.769" x2="-2313.6509" y2="6141.769" gradientTransform="matrix(-1 0 0 -1 -1887.1337 5879.1177)"> <stop offset="0" style="stop-color:#1C3761"></stop> <stop offset="0.1512" style="stop-color:#3C375B"></stop> <stop offset="0.4797" style="stop-color:#763446"></stop> <stop offset="0.9578" style="stop-color:#C8181A"></stop> <stop offset="0.9816" style="stop-color:#CC1517"></stop> </linearGradient> <ellipse class="st11" cx="440.7" cy="-262.7" rx="14.2" ry="14.3"></ellipse> <linearGradient id="SVGID_26_" gradientUnits="userSpaceOnUse" x1="1638.6069" y1="6419.519" x2="1667.1443" y2="6419.519" gradientTransform="matrix(-0.3525 -0.9358 0.9358 -0.3525 -5247.3179 3090.3142)"> <stop offset="0" style="stop-color:#1C3761"></stop> <stop offset="0.1512" style="stop-color:#3C375B"></stop> <stop offset="0.4797" style="stop-color:#763446"></stop> <stop offset="0.9578" style="stop-color:#C8181A"></stop> <stop offset="0.9816" style="stop-color:#CC1517"></stop> </linearGradient> <ellipse class="st12" cx="177.6" cy="-719.2" rx="14.2" ry="14.3"></ellipse> <linearGradient id="SVGID_27_" gradientUnits="userSpaceOnUse" x1="229.0107" y1="-753.2032" x2="243.2258" y2="-753.2032"> <stop offset="0" style="stop-color:#1C3761"></stop> <stop offset="0.1512" style="stop-color:#3C375B"></stop> <stop offset="0.4797" style="stop-color:#763446"></stop> <stop offset="0.9578" style="stop-color:#C8181A"></stop> <stop offset="0.9816" style="stop-color:#CC1517"></stop> </linearGradient> <ellipse class="st13" cx="236.1" cy="-753.2" rx="7.1" ry="7.1"></ellipse> <linearGradient id="SVGID_28_" gradientUnits="userSpaceOnUse" x1="278.4805" y1="-781.8615" x2="292.6956" y2="-781.8615"> <stop offset="0" style="stop-color:#1C3761"></stop> <stop offset="0.1512" style="stop-color:#3C375B"></stop> <stop offset="0.4797" style="stop-color:#763446"></stop> <stop offset="0.9578" style="stop-color:#C8181A"></stop> <stop offset="0.9816" style="stop-color:#CC1517"></stop> </linearGradient> <ellipse class="st14" cx="285.6" cy="-781.9" rx="7.1" ry="7.1"></ellipse> <linearGradient id="SVGID_29_" gradientUnits="userSpaceOnUse" x1="328.2738" y1="-810.4023" x2="342.489" y2="-810.4023"> <stop offset="0" style="stop-color:#1C3761"></stop> <stop offset="0.1512" style="stop-color:#3C375B"></stop> <stop offset="0.4797" style="stop-color:#763446"></stop> <stop offset="0.9578" style="stop-color:#C8181A"></stop> <stop offset="0.9816" style="stop-color:#CC1517"></stop> </linearGradient> <ellipse class="st15" cx="335.4" cy="-810.4" rx="7.1" ry="7.1"></ellipse> <linearGradient id="SVGID_30_" gradientUnits="userSpaceOnUse" x1="377.0727" y1="-839.0605" x2="391.2878" y2="-839.0605"> <stop offset="0" style="stop-color:#1C3761"></stop> <stop offset="0.1512" style="stop-color:#3C375B"></stop> <stop offset="0.4797" style="stop-color:#763446"></stop> <stop offset="0.9578" style="stop-color:#C8181A"></stop> <stop offset="0.9816" style="stop-color:#CC1517"></stop> </linearGradient> <ellipse class="st16" cx="384.2" cy="-839.1" rx="7.1" ry="7.1"></ellipse> <linearGradient id="SVGID_31_" gradientUnits="userSpaceOnUse" x1="696.5322" y1="-483.7266" x2="710.7508" y2="-483.7266"> <stop offset="0" style="stop-color:#1C3761"></stop> <stop offset="0.1512" style="stop-color:#3C375B"></stop> <stop offset="0.4797" style="stop-color:#763446"></stop> <stop offset="0.9578" style="stop-color:#C8181A"></stop> <stop offset="0.9816" style="stop-color:#CC1517"></stop> </linearGradient> <ellipse class="st17" cx="703.6" cy="-483.7" rx="7.1" ry="7.1"></ellipse> <linearGradient id="SVGID_32_" gradientUnits="userSpaceOnUse" x1="696.5322" y1="-542.1631" x2="710.7508" y2="-542.1631"> <stop offset="0" style="stop-color:#1C3761"></stop> <stop offset="0.1512" style="stop-color:#3C375B"></stop> <stop offset="0.4797" style="stop-color:#763446"></stop> <stop offset="0.9578" style="stop-color:#C8181A"></stop> <stop offset="0.9816" style="stop-color:#CC1517"></stop> </linearGradient> <ellipse class="st18" cx="703.6" cy="-542.2" rx="7.1" ry="7.1"></ellipse> <linearGradient id="SVGID_33_" gradientUnits="userSpaceOnUse" x1="696.5322" y1="-600.3301" x2="710.7508" y2="-600.3301"> <stop offset="0" style="stop-color:#1C3761"></stop> <stop offset="0.1512" style="stop-color:#3C375B"></stop> <stop offset="0.4797" style="stop-color:#763446"></stop> <stop offset="0.9578" style="stop-color:#C8181A"></stop> <stop offset="0.9816" style="stop-color:#CC1517"></stop> </linearGradient> <ellipse class="st19" cx="703.6" cy="-600.3" rx="7.1" ry="7.1"></ellipse> <linearGradient id="SVGID_34_" gradientUnits="userSpaceOnUse" x1="696.5322" y1="-655.4791" x2="710.7508" y2="-655.4791"> <stop offset="0" style="stop-color:#1C3761"></stop> <stop offset="0.1512" style="stop-color:#3C375B"></stop> <stop offset="0.4797" style="stop-color:#763446"></stop> <stop offset="0.9578" style="stop-color:#C8181A"></stop> <stop offset="0.9816" style="stop-color:#CC1517"></stop> </linearGradient> <ellipse class="st20" cx="703.6" cy="-655.5" rx="7.1" ry="7.1"></ellipse> <g> <defs> <path id="SVGID_21_" d="M392.8-484c-0.8-0.8-1.3-0.9-2-0.2c-1.4,1.3-2.6,0.4-2.8-2.2c-0.1-1.2-0.5-2.2-1-2.2 c-0.4,0-0.6,0.3-0.4,0.6c0.7,1-0.7,2.8-2,2.4c-1.4-0.4-2.3-6.5-0.9-6.6c0.4,0,0.6-2.7,0.3-6.5c-0.4-5.9-0.3-6.7,1.6-9.7 c2.1-3.3,2-5.7-0.1-5.5c-1.5,0.1-2.3-2-1.3-3.4c0.6-0.9,0.6-2.7,0-6.2c-1.4-8.2-1.9-9.3-4.2-10.1c-1.9-0.6-2.2-1.1-2.4-4.2 c-0.2-2.5,0.1-3.8,1-4.4c1.2-0.8,1.2-1,0-1.7c-2-1.2-0.1-5.3,2.6-5.8c2.4-0.5,2.8,0.7,0.8,2.7c-2.1,2.1-1.6,3.7,1.4,4.6 c1.9,0.5,3.6,0.5,5.8-0.2c3.6-1.1,3.3-0.8,4.6-3.9c0.6-1.5,2.7-3.5,5.4-5.2l4.4-2.8l3,2.9c1.6,1.6,3,3.4,3.1,4 c0,0.6,0.8,1.1,1.6,1c1.1-0.1,1.6,0.4,1.7,1.8c0.1,1.4-0.3,2-1.4,2c-0.8,0.1-1.5,0.5-1.5,0.9c0,0.4,0.9,0.7,1.9,0.6 c1.9-0.1,2.1,0.1,3.7,7.2c0.6,2.8,0.4,3.6-1.4,6.3c-2.5,3.7-2.8,5.7-1,7.9c1.2,1.5,1.3,2.1,0.1,7.7c-1,4.5-1.1,6.8-0.5,9.1 c0.7,2.5,0.6,3.3-0.4,4.3c-0.7,0.7-1.1,1.8-0.9,2.6c0.2,0.7-0.2,1.6-0.8,1.9c-0.6,0.3-1.1,1.4-1,2.4c0.2,2.5-1.4,2.4-4.2-0.2 c-3.9-3.5-6.7-2.2-6.3,2.9c0.2,2.4-0.2,3.1-2.3,4.6C394.2-482.6,394.1-482.6,392.8-484z M563.8-462.3c-1.5-0.5-1-8,0.8-11.5 c1.1-2.1,1.2-3.9,0.8-7.6c-0.7-5.5,0.4-7.3,4.5-7.6c2.8-0.2,3.5-3.9,1.2-6.2c-0.9-0.8-2.3-4-3.3-7.1c-1.2-3.9-2.4-6-3.9-7 c-1.6-1.1-2.6-3.1-4-7.8c-2.7-9.2-5.3-12.1-7.1-8c-0.4,0.9-1.2,1.7-1.7,1.7c-1.3,0.1-4.8-2.5-4.9-3.6c0-0.5-1.6-1.2-3.6-1.6 c-4.8-1-4.9-1.2-3.9-5c0.8-2.9,0.7-3.6-1-6.5c-1.8-3.1-1.9-3.2-4.7-2.4c-1.6,0.5-4.2,1.2-5.9,1.6l-3,0.8l0-3.5l0-3.5l-3.5,0 c-2.9,0-3.7-0.4-4.6-2.1c-0.6-1.2-2.7-3.9-4.5-6.2c-3.4-4-3.5-4.1-6.5-3.3c-1.7,0.4-3.6,0.4-4.1,0c-1.2-0.8-5.4,0.1-5.4,1.1 c0,0.4-0.8,0.8-1.9,0.9c-1.5,0.1-2.5-0.7-4.1-3c-1.7-2.5-2.6-3.2-5.1-3.4c-2.5-0.2-3.9-1.2-7.9-5.4c-3.1-3.3-4.9-5.9-5-7.3 c-0.1-1.4-0.6-2.1-1.4-2c-2.3,0.2-8.7-4.3-10.6-7.3c-1.3-2.2-2.7-3.3-5.3-4.1c-2.4-0.8-3.6-0.8-4-0.2c-0.3,0.6-1.2,0.7-3.1,0.2 c-2.7-0.7-3.5-2.6-2-4.4c1.1-1.3-3.3-6.3-5.9-6.8c-1.3-0.2-2.1-1.1-2.6-3c-0.6-2.2-1.2-2.8-3.3-3.2c-2.6-0.5-2.6-0.5-3.5-6.5 c-0.5-3.8-1.4-6.8-2.4-8.1c-0.9-1.1-1.7-3.3-1.8-4.9c-0.3-4.5-2.3-10.6-4-11.9c-0.8-0.6-3.1-1.6-5.1-2.2c-2-0.5-5.1-1.8-7-2.8 c-1.9-1-5.8-3.1-8.6-4.6c-2.8-1.5-6.6-2.8-8.4-3c-3.2-0.3-3.5-0.1-7,4.2c-2,2.5-4.3,5.5-5.2,6.8c-2.4,3.6-7.3,6.1-12.8,6.5 l-4.8,0.3l0.4-2.7c0.2-1.5,1-3.8,1.7-5c1.7-3.1,0.8-3.7-5.9-3.9l-5.6-0.2l-3.1-6.3c-2.8-5.6-3-6.4-1.9-7.3 c1.5-1.3,2.2-7,0.8-6.9c-0.5,0-1.6-1.2-2.5-2.7c-0.8-1.5-2.2-2.9-3-3.1c-1.1-0.3-1.6-1.2-1.7-3.2l-0.2-2.9l3.6,0.3 c3.2,0.2,3.8,0,5.5-1.9c1.1-1.2,2.3-2.2,2.8-2.3c2.1-0.1,0.4-5.1-3.1-9.2l-3.6-4.3l2.5-2.9c2.1-2.5,3-3,6.4-3.2 c2.2-0.2,5.5-0.8,7.5-1.4c2.5-0.8,4.1-1,5.5-0.5c2.8,1.1,6.3-1.8,7.3-6c0.4-1.8,1.4-3.7,2.3-4.3c0.8-0.5,1.5-1.7,1.4-2.6 c-0.1-1.9,1.3-2.1,3.5-0.6c1.2,0.8,1.5,1.7,1.3,3.7c-0.2,2,0.2,3.2,1.4,4.6l1.7,1.9l1.8-1.9c2-2.2,2.9-2.4,4.4-1.2 c0.7,0.7,0.8,1.4,0,3.1c-1.1,2.5-0.2,6.6,1.5,7c0.7,0.2,0.9-1,0.7-3.8c-0.2-3.5,0-4.3,1.9-5.9c1.4-1.2,2.5-3.1,3-5.5 c0.7-3.3,1-3.8,3.1-3.9c2.1-0.1,2.3,0.1,2.5,2.8c0.2,2.7,0.4,2.9,2,2.3c1-0.4,3.1-1,4.7-1.3c2.6-0.6,3.1-0.4,4.1,1.4 c0.6,1.1,1.4,2,1.7,2c1.5-0.1,1.2-1.4-0.9-4.1l-2.3-3l1.9-2.2c1.8-2.1,2.2-2.2,4.5-1.4c3.4,1.2,4.2,0.3,3.9-4.3l-0.3-4l3.4-0.2 c2.3-0.2,4,0.3,5.3,1.4c2.4,1.9,3.8,1,4.9-3.4c0.7-2.6,1-2.8,4.1-3.1c1.9-0.1,3.9,0.1,4.4,0.6c0.7,0.6,1.6,0.6,3.4-0.3 c1.8-0.9,2.7-1,3.5-0.4c0.9,0.6,1.6,0.3,2.9-1.3c2.3-2.8,8.7-3.6,8.8-1.1c0.1,0.9-1,2.4-2.4,3.4l-2.5,1.9l2.2-0.1 c1.6-0.1,2.4,0.3,2.8,1.7c0.3,1,2.4,3.1,4.6,4.5c4,2.6,4.1,2.7,14.3,2.5c5.7-0.1,10.4,0,10.6,0.3c0.2,0.3,0.2,1.4,0.1,2.6 c-0.2,1.5-1.1,2.6-3.3,3.8c-3.2,1.7-3.3,3.1-0.1,2.8c1.1-0.1,2.4,0.5,2.9,1.4c1.4,2.3,1.2,3.2-0.6,3.3c-2.6,0.2-2.7,2.5-0.2,4.6 c1.2,1,2.3,2.5,2.4,3.3c0.1,0.8,0.8,2,1.7,2.7c1,0.8,1.5,2,1.4,3.3c-0.3,2.6-1.9,2.7-3.7,0.3c-1.3-1.7-1.8-1.8-4.9-1.2 c-1.9,0.4-4.2,0.4-5.1,0c-2.3-1-3.9-0.1-2.3,1.3c0.7,0.6,1.3,1.5,1.3,1.9c0.1,1.1-7.1,5.1-8.7,4.9c-0.7-0.1-1.7,0.4-2.2,1 c-0.8,1.1-1.2,1.1-3.1,0.3c-2.8-1.2-3.3-0.8-4.2,3.2c-0.7,3-0.6,3.4,1.1,5c1,1,1.9,2.5,2,3.4c0.1,0.9,0.7,1.9,1.4,2.1 c0.8,0.3,1.3,1.5,1.5,3.6c0.2,3.1-0.6,4.3-1.8,2.6c-1.2-1.7-3.6,1.4-3.3,4.3c0.3,4.1,2.9,12.6,4.3,14.1c5.8,6.5,7.4,7.8,9.2,7.7 c1.2-0.1,3.1,0.9,5.1,2.8c1.9,1.8,4.7,3.3,7.2,4c5.5,1.4,6.7,2.3,7.7,5.7c0.4,1.5,1.7,4,2.8,5.5c1.3,1.7,2.4,4.6,3,7.9 c1.5,8.6,4.5,13.6,11.6,19.5c3.4,2.9,6.6,5.2,7,5.2c0.4,0,2.3,1.1,4.2,2.5c1.9,1.4,3.9,2.6,4.5,2.5c0.5,0,2,0.6,3.3,1.5 c2.1,1.4,2.6,1.4,5.4,0.4c2.1-0.8,4.1-1,6.5-0.6c2.5,0.4,4.2,0.2,6.4-0.8c2.6-1.1,3.2-1.1,5.5,0.1c3.3,1.8,3,4-1,6.9 c-4.3,3.2-3.5,7.9,1.2,7.6c1-0.1,2.8,0.7,3.8,1.6c1.1,1,4.9,2.5,8.9,3.6c8,2,20.3,7.3,22,9.5c1.4,1.8,7.3,3.5,11,3.2 c2.2-0.2,3,0.2,3.9,2c0.6,1.2,3.2,3.9,5.7,6.1c5.3,4.6,5.9,6.1,5.6,13.2c-0.1,4-0.6,5.5-1.7,6.2c-2.2,1.4-6.3-1.4-8.5-5.6 c-1-1.9-2.6-4.5-3.7-5.7c-1.8-2.1-2.4-2.3-6.7-2c-5.4,0.4-9.2-1.1-10.1-3.8c-0.5-1.5-3.7-3.4-5.5-3.3c-0.8,0.1-1.9,3.5-2.4,7.1 c-0.2,1.5-1,2.9-2,3.4c-1.4,0.7-1.8,1.8-2,5.2c-0.1,2.3-0.9,5.6-1.8,7.3c-1.5,2.9-1.5,3.1-0.1,4.5c0.9,0.9,3.1,1.6,5.5,1.7 c2.9,0.2,4.1,0.7,4.5,1.7c0.3,0.8,1.6,1.9,2.9,2.5c2.1,0.9,2.4,1.5,3.2,6.9c0.5,3.2,1.1,6.7,1.3,7.8c0.3,1.8,0,2.1-5.2,3.5 c-7.2,1.9-8.2,3.4-7.8,10.4c0.3,5,0.2,5.3-2.6,8.1c-1.7,1.7-3.1,4-3.3,5.4c-0.2,1.4-1.2,3.6-2.2,5c-1.6,2.2-2.4,2.6-6,2.8 C566.8-462,564.4-462.1,563.8-462.3z M548.8-422.1c-1-0.9-3.1-1.2-7-1.2c-5.5,0-5.5,0-7.3-2.9c-2.2-3.6-6.5-5.6-12.3-5.6 c-3.9,0-4.5-0.3-6.3-2.5c-1.7-2.2-2.4-2.5-5.2-2.3c-2.9,0.2-3.4,0-4.4-2c-1.3-2.5-4.8-5-7-4.9c-0.8,0.1-1.9-0.3-2.4-0.7 c-0.7-0.6-1.5-0.6-3.1,0.2c-2,1-2.4,0.9-5.1-1.4c-4-3.3-4.6-5.6-2.8-10.4c0.8-2.1,1.9-3.9,2.5-4c0.6,0,1.4-0.8,1.9-1.7 c1.1-2.2,1.6-2.1,2.9,0.6c1.5,2.9,3.8,2.8,4.7-0.2c0.5-1.8,1.2-2.4,3.4-2.9c1.5-0.3,3.3-0.9,4-1.2c0.9-0.4,1.4,0,1.8,1.7 c0.5,2,1,2.3,3,2.1c1.3-0.1,2.5,0.3,2.8,0.8c0.4,0.8,2.7,0.9,9.8,0.4c9.9-0.6,10.8-1,14.9-5.3c1.7-1.8,2.2-2,4-1.3 c3.1,1.2,6,0.7,7-1.2c0.5-1,1.4-1.5,2.1-1.3c0.6,0.2,2.2-0.2,3.4-1c2.7-1.6,5.6-1.2,4.9,0.7c-0.2,0.7-0.6,2-0.7,2.9 c-0.2,0.9-0.9,2.5-1.6,3.7c-0.7,1.2-1.2,2.4-1.2,2.8c0,0.4-1,1.7-2.2,2.9c-1.8,1.8-2.1,2.6-1.6,4.2c0.4,1.3,0.2,2.6-0.8,4 c-1.8,2.7-1.6,5.1,0.4,6.8c1.7,1.4,2.3,3.3,1,3.4c-1.4,0.1-0.7,2.3,1,3c2.3,1.1,2.3,4.2,0,5c-1.7,0.6-1.8,1-1.6,5.2 C552.2-420.7,551.5-419.8,548.8-422.1L548.8-422.1z"></path> </defs> <linearGradient id="SVGID_35_" gradientUnits="userSpaceOnUse" x1="341.9177" y1="-580.0723" x2="623.3996" y2="-580.0723"> <stop offset="0" style="stop-color:#1C3761"></stop> <stop offset="0.1512" style="stop-color:#3C375B"></stop> <stop offset="0.4797" style="stop-color:#763446"></stop> <stop offset="0.9578" style="stop-color:#C8181A"></stop> <stop offset="0.9816" style="stop-color:#CC1517"></stop> </linearGradient> <use href="#SVGID_21_" style="overflow:visible;fill-rule:evenodd;clip-rule:evenodd;fill:url(#SVGID_35_);"></use> <clipPath id="SVGID_36_"> <use href="#SVGID_21_" style="overflow:visible;"></use> </clipPath> <linearGradient id="SVGID_37_" gradientUnits="userSpaceOnUse" x1="339.0038" y1="-580.0723" x2="626.3134" y2="-580.0723"> <stop offset="0" style="stop-color:#1C3761"></stop> <stop offset="0.1512" style="stop-color:#3C375B"></stop> <stop offset="0.4797" style="stop-color:#763446"></stop> <stop offset="0.9578" style="stop-color:#C8181A"></stop> <stop offset="0.9816" style="stop-color:#CC1517"></stop> </linearGradient> <rect x="339" y="-742.2" class="st21" width="287.3" height="324.2"></rect> </g> <g> <path id="SVGID_20_" class="st22" d="M447.6-360l2.7,19.4h12.1v-16c0-1.6,0.8-3,2.5-3c1.6,0,2.4,1.4,2.4,3v16.1H482v-18.7 c0-3.8-0.9-6.6-2.5-8.8c-1.5-2-4.4-3.5-7.9-3.5c-2.3,0-4.6,0.8-5.9,1.8c-0.8,0.6-1.3,1.1-2.1,1.8c-0.3,0.3-1.8,1.9-2,1.9l-0.2,0 l0.6-4.9h-14.4V-360z"></path> <path id="SVGID_19_" class="st22" d="M404.7-354.5c0,0.1,0.2,2,0.3,2.3c0.1,0.7,0.3,1.4,0.5,2c0.2,1,1,2.7,1.5,3.4 c0.7,1.1,1.4,1.8,2.3,2.8c0.9,0.9,1.8,1.4,2.9,2.1c1.7,1.1,5.2,2.1,8,2c1.9,0,2.9,0,4.6-0.3c1-0.2,3.2-0.7,3.9-1l0.6-12.3 c-1.8,0.9-2.7,2.3-5.6,2.3c-2,0-3.2-1.2-3.9-2.5c-0.8-1.6-0.3-3.8,0.6-4.8c1-1,2.9-1.9,4.8-1.3c0.8,0.3,1.6,0.5,2.2,1 c0.7,0.4,1.2,0.9,1.8,1.4v-0.7l-0.9-6.5l0.9-0.3v-4.5l-0.8-0.5c-1.3-0.3-2.4-0.7-3.9-0.9c-1.1-0.2-3.2-0.4-4.4-0.4 c-4.7,0-8.5,2-10.9,4.4c-1.2,1.2-2.5,2.8-3.1,4.5c-0.4,0.9-0.7,1.9-1,2.9c-0.1,0.4-0.4,3.3-0.5,3.4V-354.5z"></path> <polygon id="SVGID_11_" class="st23" points="430.5,-364.9 429.6,-364.7 430.5,-358.2 434.1,-332.7 434.3,-332.7 448.9,-337.2 448.4,-340.5 445.7,-359.9 444.4,-369.1 444.4,-369.2 "></polygon> <rect id="SVGID_10_" x="484.2" y="-370.9" class="st22" width="14.7" height="30.4"></rect> <path id="SVGID_9_" class="st23" d="M429.7-369.9l0.8,0.5c0.8,0.4,1.8,0.7,2.9,0.7h0.4c2.2,0,4.8-1.2,6.2-2.1 c0.2-0.1,0.8-0.7,1.1-1c0.6-0.5,0.5-0.6,0.9-1c0.3-0.3,0.6-0.8,0.8-1.3c0.1-0.3,0.5-1.2,0.7-1.5l0.3-2.4l0-0.1l-0.3-2l-0.1,0h0.1 c-0.1-0.8-0.8-2-1.1-2.5c-0.5-0.7-1.3-1.3-2.1-1.7c-1.8-0.9-4.5-0.7-6.3,0c-0.4,0.2-0.9,0.4-1.3,0.5c-0.5,0.2-0.7,0.5-1.2,0.7 c-0.2,0.1-1,0.7-1.1,0.8c-0.1,0.1-0.3,0.3-0.5,0.5c-0.4,0.3-0.2,0.2-0.4,0.5c-1,1.1-2.3,3.2-2.3,5.3c0,0.7,0.1,1.4,0.2,1.9 c0,0.5,0.4,1.1,0.4,1.6C428.1-371.5,429.2-370.6,429.7-369.9"></path> <path id="SVGID_8_" class="st22" d="M491.7-373.1c2.3,0,4.1-0.7,5.6-1.7c1.2-0.8,2.4-2.9,2.4-4.9v-0.5c0-1.2-0.1-2-0.5-2.8 c0.3-0.1-0.8-1.6-1-1.8c-0.6-0.6-0.9-0.9-1.6-1.4c-1.2-0.8-2.9-1.2-4.9-1.2c-2.7,0-4.3,0.7-5.8,1.9c-1.4,1.2-2.4,2.9-2.3,5.3 C483.7-375.8,486.8-373.1,491.7-373.1"></path> </g> <linearGradient id="SVGID_38_" gradientUnits="userSpaceOnUse" x1="-4197.7759" y1="4539.8101" x2="-4169.2974" y2="4539.8101" gradientTransform="matrix(-0.778 0.6282 -0.6282 -0.778 -225.0865 5750.5317)"> <stop offset="0" style="stop-color:#1C3761"></stop> <stop offset="0.1512" style="stop-color:#3C375B"></stop> <stop offset="0.4797" style="stop-color:#763446"></stop> <stop offset="0.9578" style="stop-color:#C8181A"></stop> <stop offset="0.9816" style="stop-color:#CC1517"></stop> </linearGradient> <ellipse class="st24" cx="178" cy="-409.8" rx="14.2" ry="14.3"></ellipse> <linearGradient id="SVGID_39_" gradientUnits="userSpaceOnUse" x1="-2235.7856" y1="6080.8428" x2="-2207.3552" y2="6080.8428" gradientTransform="matrix(-1 0 0 -1 -1519.636 5671.2168)"> <stop offset="0" style="stop-color:#1C3761"></stop> <stop offset="0.1512" style="stop-color:#3C375B"></stop> <stop offset="0.4797" style="stop-color:#763446"></stop> <stop offset="0.9578" style="stop-color:#C8181A"></stop> <stop offset="0.9816" style="stop-color:#CC1517"></stop> </linearGradient> <ellipse class="st25" cx="701.9" cy="-409.6" rx="14.2" ry="14.3"></ellipse> <linearGradient id="SVGID_40_" gradientUnits="userSpaceOnUse" x1="-2342.0813" y1="5895.5049" x2="-2313.6509" y2="5895.5049" gradientTransform="matrix(-1 0 0 -1 -1887.1337 5023.6099)"> <stop offset="0" style="stop-color:#1C3761"></stop> <stop offset="0.1512" style="stop-color:#3C375B"></stop> <stop offset="0.4797" style="stop-color:#763446"></stop> <stop offset="0.9578" style="stop-color:#C8181A"></stop> <stop offset="0.9816" style="stop-color:#CC1517"></stop> </linearGradient> <ellipse class="st26" cx="440.7" cy="-871.9" rx="14.2" ry="14.3"></ellipse> <linearGradient id="SVGID_41_" gradientUnits="userSpaceOnUse" x1="432.5532" y1="-317.8486" x2="446.7718" y2="-317.8486"> <stop offset="0" style="stop-color:#1C3761"></stop> <stop offset="0.1512" style="stop-color:#3C375B"></stop> <stop offset="0.4797" style="stop-color:#763446"></stop> <stop offset="0.9578" style="stop-color:#C8181A"></stop> <stop offset="0.9816" style="stop-color:#CC1517"></stop> </linearGradient> <ellipse class="st27" cx="439.7" cy="-317.8" rx="7.1" ry="7.1"></ellipse> </g> <g> <g> <path class="st28" d="M135.4-341.8c-2.3-3.5-3.4-6.8-3.2-9.8c0.2-3,1.8-5.4,4.8-7.3c3.1-1.9,4.7-2.9,7.8-4.8 c3-1.9,5.8-2.3,8.5-1.2c2.6,1,5,3.1,7.1,6.4c0.1,0.1,0.1,0.1,0.2,0.2c2.1,3.2,3.1,6.2,3,9c-0.1,2.8-1.6,5.3-4.4,7.4 c-1-1.4-1.5-2.1-2.4-3.5c2.2-1.6,3.4-3.3,3.5-5.1c0.2-1.8-0.5-3.9-2.1-6.3c-0.1-0.1-0.1-0.1-0.2-0.2c-1.6-2.4-3.2-3.9-4.9-4.4 c-1.7-0.6-3.7-0.1-6,1.3c-3.1,2-4.6,2.9-7.7,4.9c-2.3,1.5-3.5,3.1-3.7,5c-0.2,1.9,0.6,4.1,2.2,6.7c0.1,0.1,0.1,0.2,0.2,0.3 c1.7,2.6,3.4,4.1,5.2,4.7c1.8,0.6,3.8,0,6-1.5c1,1.4,1.5,2.1,2.5,3.5c-2.9,2.1-5.7,2.7-8.4,1.7c-2.8-1-5.3-3.2-7.6-6.7 C135.5-341.6,135.4-341.6,135.4-341.8z"></path> <path class="st28" d="M153.8-316.6c3.9-3.2,5.9-4.7,9.8-7.9c2.2-8,3.4-11.9,6-19.6c1,1.4,1.6,2.1,2.6,3.5 c-2.1,6.1-3.1,9.2-4.9,15.5c0.1,0.2,0.2,0.2,0.3,0.4c6.4-0.5,9.6-0.8,15.9-1.5c1.1,1.3,1.7,2,2.8,3.3c-7.9,0.9-12,1.3-20.1,1.8 c-3.9,3.2-5.8,4.8-9.7,8C155.4-314.6,154.9-315.3,153.8-316.6z"></path> <path class="st28" d="M192.3-295.2c2.5,3.7,2.5,6.8,0.1,9.5c-0.1,0.1-0.1,0.1-0.2,0.2c-1.7,1.8-3.8,2.6-6.1,2.2 c-2.3-0.4-4.8-1.8-7.3-4.4c-3.9-4-5.8-6.1-9.5-10.3c7.2-6.6,14.4-13.2,21.5-19.8c3.1,3.5,4.6,5.2,7.8,8.5c2.3,2.4,3.7,4.7,4,6.9 c0.4,2.2-0.3,4.2-1.9,5.8c-0.1,0.1-0.2,0.2-0.3,0.3c-2.1,2.2-4.7,2.5-7.9,0.7C192.5-295.4,192.4-295.3,192.3-295.2z M197.8-299.2 c1.1-1.1,1.6-2.4,1.4-3.7c-0.2-1.3-1.1-2.7-2.6-4.4c-2.1-2.2-3.2-3.3-5.2-5.6c-2.9,2.7-4.3,4.1-7.2,6.8c2.1,2.3,3.2,3.5,5.4,5.8 c1.6,1.7,3.1,2.7,4.4,2.9c1.3,0.2,2.5-0.3,3.7-1.5C197.6-299.1,197.7-299.1,197.8-299.2z M189.3-288.6c0.1-0.1,0.1-0.1,0.2-0.2 c1.2-1.2,1.7-2.5,1.5-3.9c-0.2-1.3-1.1-2.8-2.8-4.6c-2.6-2.7-3.9-4.1-6.4-6.8c-3,2.9-4.6,4.3-7.6,7.1c2.6,2.9,3.9,4.3,6.6,7 c1.7,1.8,3.2,2.7,4.6,2.9C186.8-286.8,188.1-287.3,189.3-288.6z"></path> <path class="st28" d="M227-279.1c-5.3-4.4-7.9-6.6-13.1-11.3c-2.7,3-4,4.6-6.7,7.6c4,3.6,6,5.3,10,8.8c-0.8,0.9-1.1,1.4-1.9,2.3 c-4.1-3.4-6.1-5.2-10.1-8.8c-2.7,3.1-4.1,4.6-6.8,7.7c5.5,5,8.3,7.4,14,12.1c-0.7,0.9-1.1,1.4-1.8,2.3c-7-5.7-10.5-8.7-17.2-15 c6.5-7.2,13.1-14.5,19.6-21.7c6.2,5.8,9.4,8.5,15.8,13.8C228.1-280.5,227.7-280,227-279.1z"></path> <path class="st28" d="M247.7-256.2c-3,4.5-7.2,5.2-12.4,2c0,0.1-0.1,0.1-0.1,0.2c0.2,5.8,0.4,8.7,0.9,14.5 c-1.5-1-2.3-1.6-3.8-2.6c-0.4-5.9-0.5-8.9-0.7-14.8c-1.7-1.3-2.6-1.9-4.3-3.2c-2.8,3.7-4.1,5.6-6.9,9.3c-1.3-1-2-1.5-3.3-2.5 c5.9-7.8,11.8-15.6,17.7-23.3c3.7,2.9,5.6,4.3,9.3,7c5.7,4.1,6.9,8.4,3.7,13.4C247.7-256.3,247.7-256.2,247.7-256.2z M244.6-258.5c1.2-1.8,1.6-3.4,1.3-4.7c-0.4-1.3-1.5-2.7-3.5-4.1c-2.6-1.9-3.8-2.8-6.4-4.7c-2.8,3.8-4.2,5.7-7,9.5 c2.6,2,3.9,3,6.6,4.9c2,1.5,3.7,2.1,5.1,2.1c1.4-0.1,2.7-1,3.9-2.8C244.5-258.4,244.5-258.4,244.6-258.5z"></path> <path class="st28" d="M251.9-228.8c-3.4-2.1-5.7-4.4-6.8-7c-1.1-2.5-0.8-5.2,0.9-7.9c1.3,0.9,2,1.3,3.4,2.2 c-1.3,2-1.6,3.8-0.9,5.4c0.7,1.6,2.3,3.2,4.9,4.7c0.1,0.1,0.1,0.1,0.2,0.1c4.7,2.8,7.9,2.7,9.6-0.2c0.3-0.5,0.5-1,0.6-1.5 c0.1-0.5,0-1-0.2-1.6c-0.2-0.5-0.4-1-0.6-1.4c-0.2-0.4-0.5-0.9-1-1.5c-0.5-0.6-0.9-1-1.2-1.4c-0.3-0.3-0.8-0.8-1.4-1.5 c-0.6-0.7-1.1-1.1-1.3-1.3c-1.1-1.2-2-2.2-2.6-2.9c-0.6-0.8-1.2-1.8-1.9-3c-0.7-1.2-1-2.4-0.9-3.5s0.4-2.3,1.1-3.4 c1.3-2,3.1-3,5.4-3.1c2.3-0.1,4.8,0.7,7.5,2.3c0.1,0.1,0.1,0.1,0.2,0.1c2.9,1.8,4.9,3.8,5.9,6.2c1,2.4,0.8,4.9-0.8,7.7 c-1.3-0.8-2-1.1-3.3-1.9c1.2-2.1,1.4-3.9,0.8-5.4c-0.6-1.5-2-2.9-4.1-4.2c-0.1-0.1-0.1-0.1-0.2-0.1c-3.8-2.3-6.5-2.2-8.1,0.4 c-0.2,0.3-0.3,0.6-0.4,1c-0.1,0.3-0.2,0.7-0.2,0.9c0,0.3,0,0.6,0.1,1c0.1,0.4,0.2,0.7,0.3,0.9c0.1,0.2,0.2,0.6,0.5,1 c0.3,0.4,0.5,0.7,0.6,0.9c0.1,0.2,0.4,0.5,0.8,0.9c0.4,0.4,0.6,0.7,0.8,0.9c0.1,0.1,0.4,0.5,0.9,0.9c0.4,0.5,0.7,0.8,0.9,0.9 c2.5,2.6,4.2,4.5,5,5.8c1.7,2.7,1.9,5.3,0.6,7.7c-1.2,2.2-3.1,3.4-5.7,3.5c-2.6,0.1-5.6-0.8-8.8-2.7 C252-228.7,252-228.7,251.9-228.8z"></path> <path class="st28" d="M300.9-233.3c-6.1-2.7-9.1-4.2-15-7.2c-1.8,3.6-2.7,5.4-4.6,9.1c4.6,2.3,6.9,3.5,11.5,5.6 c-0.5,1.1-0.7,1.6-1.2,2.7c-4.7-2.2-7-3.3-11.6-5.7c-1.8,3.7-2.8,5.5-4.6,9.2c6.4,3.3,9.6,4.8,16.1,7.7c-0.5,1.1-0.7,1.6-1.2,2.7 c-8-3.6-12-5.5-19.8-9.6c4.5-8.7,9-17.4,13.5-26.1c7.2,3.8,10.8,5.6,18.2,8.9C301.6-234.9,301.4-234.4,300.9-233.3z"></path> <path class="st28" d="M306.9-201.7c-3.5-1.4-5.9-3.3-7.3-5.7c-1.3-2.4-1.3-5.3,0.1-8.6c1.4-3.4,2.2-5.1,3.6-8.5 c1.4-3.3,3.4-5.3,5.9-6.1c2.5-0.8,5.4-0.6,8.6,0.7c0.1,0,0.1,0.1,0.2,0.1c3.2,1.3,5.5,3,6.8,5.3c1.3,2.3,1.4,5.1,0.2,8.5 c-1.4-0.5-2.1-0.8-3.6-1.3c0.9-2.6,1-4.6,0.2-6.1c-0.8-1.5-2.3-2.7-4.7-3.7c-0.1,0-0.1-0.1-0.2-0.1c-2.4-0.9-4.3-1.1-5.9-0.5 c-1.6,0.6-2.9,2.2-3.9,4.7c-1.4,3.4-2.1,5.1-3.5,8.5c-1,2.5-1.2,4.6-0.4,6.2c0.8,1.6,2.5,2.9,5,3.9c0.1,0,0.2,0.1,0.3,0.1 c2.5,1,4.7,1.2,6.3,0.5c1.6-0.6,2.9-2.2,3.8-4.8c1.5,0.5,2.2,0.8,3.7,1.3c-1.2,3.4-3,5.5-5.6,6.4c-2.6,0.9-5.7,0.7-9.2-0.7 C307.1-201.6,307-201.6,306.9-201.7z"></path> <path class="st28" d="M338.3-191.1c-3.6-1-6.1-2.7-7.6-4.8c-1.5-2.2-1.7-4.9-0.6-8.1c2.4-7.6,3.6-11.3,6-18.9 c1.4,0.5,2.1,0.7,3.5,1.1c-2.3,7.6-3.5,11.4-5.8,18.9c-0.7,2.4-0.7,4.3,0.2,5.7c0.9,1.4,2.6,2.5,5.2,3.2c0.1,0,0.2,0,0.3,0.1 c2.6,0.7,4.6,0.7,6.1,0c1.5-0.7,2.5-2.3,3.2-4.8c2-7.7,3-11.5,5-19.2c1.4,0.4,2.1,0.6,3.6,0.9c-1.9,7.7-2.9,11.5-4.8,19.2 c-0.8,3.3-2.4,5.4-4.8,6.5c-2.4,1.1-5.4,1.1-9,0.1C338.4-191,338.4-191,338.3-191.1z"></path> <path class="st28" d="M385.9-201.8c-0.8,5.3-4.2,7.8-10.2,7.2c0,0.1,0,0.1,0,0.2c2.5,5.1,3.8,7.7,6.6,12.7 c-1.8-0.3-2.6-0.4-4.4-0.7c-2.7-5.2-4-7.8-6.5-13c-2-0.4-3.1-0.6-5.1-1c-1,4.5-1.4,6.8-2.4,11.3c-1.6-0.3-2.3-0.5-3.9-0.8 c2.1-9.6,4.2-19.1,6.4-28.7c4.4,1,6.6,1.4,11,2.3c6.6,1.2,9.5,4.6,8.6,10.4C385.9-201.9,385.9-201.9,385.9-201.8z M382.3-202.6 c0.4-2.2,0.1-3.7-0.8-4.8c-0.9-1-2.4-1.7-4.7-2.2c-3-0.6-4.5-0.9-7.5-1.5c-1,4.6-1.5,7-2.4,11.6c3.1,0.7,4.6,1,7.8,1.5 c2.4,0.4,4.1,0.3,5.3-0.4c1.2-0.7,1.9-2.1,2.3-4.2C382.2-202.5,382.2-202.5,382.3-202.6z"></path> <path class="st28" d="M390.8-180.5c1.3-9.7,2.6-19.4,3.9-29.1c1.5,0.2,2.2,0.3,3.6,0.5c-1.2,9.7-2.4,19.5-3.6,29.2 C393.1-180.2,392.3-180.3,390.8-180.5z"></path> <path class="st28" d="M427.4-206.8c0,1.2-0.1,1.8-0.1,3c-3.9-0.1-5.9-0.2-9.7-0.5c-0.7,10.5-1,15.8-1.7,26.4 c-1.6-0.1-2.4-0.2-4-0.3c0.8-10.5,1.2-15.8,2-26.3c-3.9-0.3-5.8-0.5-9.7-0.9c0.1-1.2,0.2-1.8,0.3-3 C413.6-207.5,418.2-207.2,427.4-206.8z"></path> <path class="st28" d="M440.4-177.2c0-5.1,0-7.6,0-12.7c-4.4-6.7-6.5-10-10.4-16.8c1.6,0,2.4,0.1,3.9,0.1 c3.1,5.4,4.8,8.1,8.1,13.5c0.2,0,0.3,0,0.5,0c3.3-5.4,4.9-8.1,8-13.6c1.6,0,2.4-0.1,3.9-0.1c-3.9,6.9-5.9,10.3-10.2,17 c0.1,5.1,0.1,7.6,0.2,12.7C442.7-177.2,442-177.2,440.4-177.2z"></path> <path class="st29" d="M476.4-179c-1-9.8-1.9-19.5-2.9-29.3c2.2-0.2,3.3-0.3,5.5-0.6c5.9,9.3,9,13.9,15.5,23c0.2,0,0.3,0,0.5-0.1 c-1.5-9.8-2.2-14.7-3.7-24.5c1.4-0.2,2.1-0.3,3.5-0.6c1.6,9.7,3.2,19.3,4.7,29c-2.3,0.4-3.5,0.6-5.8,0.9 c-6.6-9.1-9.7-13.7-15.6-23c-0.2,0-0.3,0-0.4,0c1.1,9.9,1.6,14.8,2.7,24.7C478.7-179.3,477.9-179.2,476.4-179z"></path> <path class="st29" d="M528.8-188.2c-2-3.2-3.1-4.9-5.1-8.1c-4.6,1.1-6.8,1.6-11.4,2.6c-0.4,3.8-0.7,5.7-1.2,9.5 c-1.7,0.3-2.5,0.5-4.2,0.8c1.6-10.2,2.9-20.5,3.9-30.8c2.2-0.5,3.3-0.7,5.5-1.2c5.2,8.9,10.8,17.6,16.5,26.2 C531.3-188.8,530.4-188.6,528.8-188.2z M512.6-196.8c3.8-0.8,5.7-1.2,9.5-2.1c-3.1-5.1-4.6-7.7-7.6-12.9c-0.2,0-0.3,0.1-0.4,0.1 C513.6-205.8,513.3-202.8,512.6-196.8z"></path> <path class="st29" d="M548-224.4c0.4,1.1,0.6,1.7,0.9,2.8c-3.7,1.3-5.6,1.9-9.4,3c3.1,10.1,4.6,15.2,7.7,25.3 c-1.5,0.5-2.3,0.7-3.8,1.2c-3-10.1-4.4-15.2-7.4-25.4c-3.8,1.1-5.7,1.6-9.5,2.6c-0.3-1.2-0.5-1.7-0.8-2.9 C534.7-220.1,539.2-221.4,548-224.4z"></path> <path class="st29" d="M563.7-198.8c-3.3-9.2-6.6-18.5-9.9-27.7c1.4-0.5,2.1-0.8,3.5-1.3c3.4,9.2,6.8,18.4,10.2,27.6 C565.9-199.6,565.2-199.3,563.7-198.8z"></path> <path class="st29" d="M587.6-207.9c-3.5,1.5-6.5,1.9-9.2,1.1c-2.6-0.8-4.6-2.8-5.9-6.1c-1.4-3.4-2-5.1-3.4-8.6 c-1.3-3.3-1.3-6.1-0.1-8.5c1.2-2.4,3.4-4.2,6.6-5.6c0.1,0,0.1-0.1,0.2-0.1c3.2-1.4,6-1.8,8.6-1.1c2.6,0.7,4.6,2.6,6.2,5.8 c1.6,3.3,2.4,5,4,8.3c1.5,3.2,1.7,6.1,0.5,8.6c-1.2,2.5-3.6,4.5-7,6.1C587.8-208,587.7-208,587.6-207.9z M586.5-210.6 c0.1,0,0.1-0.1,0.2-0.1c2.5-1.1,4.1-2.5,4.8-4.1c0.7-1.6,0.5-3.7-0.6-6.1c-1.6-3.4-2.4-5.1-3.9-8.4c-1.1-2.4-2.5-3.9-4.1-4.4 c-1.6-0.5-3.6-0.2-5.9,0.8c-0.1,0-0.1,0.1-0.2,0.1c-2.3,1-3.9,2.3-4.6,3.9c-0.7,1.5-0.6,3.6,0.5,6.1c1.4,3.4,2.1,5.2,3.5,8.6 c1,2.5,2.4,4.1,4.1,4.6C581.9-209.2,584-209.5,586.5-210.6z"></path> <path class="st29" d="M607.3-217.9c-4.4-8.7-8.9-17.4-13.3-26.2c2-1,3-1.6,4.9-2.6c8.9,6.5,13.5,9.6,23,15.5 c0.2-0.1,0.3-0.1,0.4-0.2c-5-8.6-7.5-12.9-12.4-21.5c1.3-0.7,1.9-1.1,3.1-1.9c5,8.4,10,16.8,15,25.2c-2.1,1.3-3.1,1.9-5.2,3.1 c-9.5-5.9-14.1-9-23.1-15.5c-0.2,0.1-0.2,0.1-0.4,0.2c4.6,8.8,6.9,13.2,11.5,22C609.4-218.9,608.7-218.6,607.3-217.9z"></path> <path class="st29" d="M653.8-246.7c-3.1-2.2-4.7-3.3-7.7-5.6c-3.9,2.8-5.9,4.2-9.9,6.9c1,3.7,1.4,5.6,2.3,9.3 c-1.5,1-2.2,1.5-3.7,2.4c-2.2-10.1-4.6-20.3-7.4-30.3c1.9-1.3,2.9-2,4.8-3.3c8.2,6.2,16.6,12.2,25.2,17.9 C655.9-248.2,655.2-247.7,653.8-246.7z M635.3-248.4c3.3-2.2,5-3.4,8.2-5.7c-4.8-3.6-7.2-5.4-11.9-9.1c-0.2,0.1-0.2,0.2-0.4,0.3 C632.9-257.2,633.7-254.3,635.3-248.4z"></path> <path class="st29" d="M665.1-259.1c5.1-4.1,7.6-6.2,12.5-10.6c0.8,0.9,1.2,1.3,1.9,2.2c-6.2,5.5-9.4,8.2-15.9,13.3 c-5.9-7.8-11.9-15.5-17.8-23.3c1.2-0.9,1.8-1.4,3-2.4C655.3-271.5,658.6-267.4,665.1-259.1z"></path> <path class="st29" d="M696.8-288c4.7-4.8,7-7.3,11.5-12.3c0.9,0.8,1.3,1.2,2.2,2c-5.7,6.4-8.6,9.5-14.5,15.4 c-6.8-7-13.6-14-20.4-21c1.1-1.1,1.7-1.7,2.8-2.8C685.7-299.2,689.4-295.4,696.8-288z"></path> <path class="st29" d="M728.8-320.7c-3.7-1.2-5.5-1.8-9.1-3c-3.2,4.1-4.8,6.1-8,10c1.9,3.4,2.9,5,4.7,8.4c-1.2,1.4-1.8,2.1-3,3.6 c-4.8-9.3-9.8-18.4-15.1-27.4c1.6-1.9,2.3-2.9,3.9-4.8c9.7,3.5,19.6,6.6,29.5,9.5C730.5-322.9,729.9-322.2,728.8-320.7z M710.1-316.4c2.7-3.3,4-4.9,6.6-8.3c-5.7-2-8.5-3-14.1-5.1c-0.1,0.2-0.2,0.2-0.3,0.4C705.5-324.2,707.1-321.6,710.1-316.4z"></path> <path class="st29" d="M734.8-355.4c3.2-3.5,6.3-4.3,9.3-2.5c0.1,0.1,0.2,0.1,0.3,0.2c2.1,1.3,3.3,3.2,3.3,5.7 c0.1,2.5-0.9,5.4-3,8.5c-3.2,4.9-4.8,7.4-8.2,12.1c-7.9-5.7-15.8-11.4-23.6-17.1c2.7-3.9,4.1-5.9,6.7-9.9c1.9-3,3.9-4.9,6-5.8 c2.1-0.9,4.1-0.8,6.1,0.5c0.2,0.1,0.2,0.1,0.4,0.2c2.6,1.6,3.4,4.3,2.2,7.9C734.6-355.6,734.7-355.5,734.8-355.4z M729.8-360 c-1.3-0.9-2.6-1-3.9-0.5c-1.2,0.5-2.5,1.8-3.8,3.8c-1.8,2.7-2.7,4-4.5,6.7c3.2,2.3,4.9,3.4,8.1,5.7c1.9-2.7,2.8-4.1,4.6-6.9 c1.4-2.1,2-3.9,2-5.2c-0.1-1.4-0.8-2.5-2.2-3.4C730-359.9,730-360,729.8-360z M741.9-354c-0.1-0.1-0.2-0.1-0.3-0.2 c-1.4-0.9-2.8-1.1-4.1-0.6c-1.3,0.5-2.6,1.9-3.9,4c-2.1,3.3-3.2,4.9-5.4,8.1c3.4,2.4,5.1,3.6,8.5,6c2.3-3.3,3.4-5,5.6-8.4 c1.4-2.2,2.1-4,2-5.4C744.2-351.9,743.4-353.1,741.9-354z"></path> </g> </g> <text transform="matrix(1 0 0 1 876.0604 -573.0594)"><tspan x="0" y="0" class="st28" style="font-family:'FraktionSans-Regular'; font-size:210px; letter-spacing:-9;">CYBERSECURITY</tspan><tspan x="0" y="209" class="st29" style="font-family:'FraktionSans-Regular'; font-size:210px; letter-spacing:-9;">NATIONAL LAB</tspan></text> </g> <g> <linearGradient id="SVGID_42_" gradientUnits="userSpaceOnUse" x1="12.6489" y1="391.8298" x2="769.6489" y2="391.8298"> <stop offset="0" style="stop-color:#1C3761"></stop> <stop offset="0.1512" style="stop-color:#3C375B"></stop> <stop offset="0.4797" style="stop-color:#763446"></stop> <stop offset="0.9578" style="stop-color:#C8181A"></stop> <stop offset="0.9816" style="stop-color:#CC1517"></stop> </linearGradient> <circle class="st30" cx="391.1" cy="391.8" r="377.5"></circle> <circle class="st0" cx="391.1" cy="391.8" r="375.6"></circle> <g> <g> <linearGradient id="SVGID_43_" gradientUnits="userSpaceOnUse" x1="117.8605" y1="246.6591" x2="245.4268" y2="246.6591" gradientTransform="matrix(1.0324 1.773184e-02 1.963874e-02 1.0108 2.7352 -12.8486)"> <stop offset="0" style="stop-color:#1C3761"></stop> <stop offset="0.1512" style="stop-color:#3C375B"></stop> <stop offset="0.4797" style="stop-color:#763446"></stop> <stop offset="0.9578" style="stop-color:#C8181A"></stop> <stop offset="0.9816" style="stop-color:#CC1517"></stop> </linearGradient> <polygon class="st31" points="260.8,278.7 128.6,202.2 129.4,200.7 261.7,277.2 "></polygon> </g> <g> <linearGradient id="SVGID_44_" gradientUnits="userSpaceOnUse" x1="150.9158" y1="268.7017" x2="419.4944" y2="268.7017" gradientTransform="matrix(0.9975 -4.278130e-03 1.293082e-02 0.9924 -26.0462 14.3551)"> <stop offset="0" style="stop-color:#1C3761"></stop> <stop offset="0.1512" style="stop-color:#3C375B"></stop> <stop offset="0.4797" style="stop-color:#763446"></stop> <stop offset="0.9578" style="stop-color:#C8181A"></stop> <stop offset="0.9816" style="stop-color:#CC1517"></stop> </linearGradient> <polygon class="st32" points="132.5,511.3 131,510.4 391.3,48.3 392.9,49.2 "></polygon> </g> <g> <linearGradient id="SVGID_45_" gradientUnits="userSpaceOnUse" x1="381.5771" y1="278.0463" x2="645.8831" y2="278.0463" gradientTransform="matrix(1.0017 1.048703e-02 -4.448969e-03 1.0052 9.3439 -5.024)"> <stop offset="0" style="stop-color:#1C3761"></stop> <stop offset="0.1512" style="stop-color:#3C375B"></stop> <stop offset="0.4797" style="stop-color:#763446"></stop> <stop offset="0.9578" style="stop-color:#C8181A"></stop> <stop offset="0.9816" style="stop-color:#CC1517"></stop> </linearGradient> <polygon class="st33" points="652.5,511.4 391.3,49.2 392.9,48.3 654.1,510.6 "></polygon> </g> <g> <linearGradient id="SVGID_46_" gradientUnits="userSpaceOnUse" x1="129.8767" y1="509.4832" x2="651.5128" y2="509.4832" gradientTransform="matrix(1.0001 0 0 1 1.8337 1.3692)"> <stop offset="0" style="stop-color:#1C3761"></stop> <stop offset="0.1512" style="stop-color:#3C375B"></stop> <stop offset="0.4797" style="stop-color:#763446"></stop> <stop offset="0.9578" style="stop-color:#C8181A"></stop> <stop offset="0.9816" style="stop-color:#CC1517"></stop> </linearGradient> <rect x="131.7" y="510" class="st34" width="521.7" height="1.8"></rect> </g> <g> <linearGradient id="SVGID_47_" gradientUnits="userSpaceOnUse" x1="141.9841" y1="403.0957" x2="143.7383" y2="403.0957" gradientTransform="matrix(1 -3.263917e-03 3.300352e-03 1.0112 -14.7054 -53.3629)"> <stop offset="0" style="stop-color:#1C3761"></stop> <stop offset="0.1512" style="stop-color:#3C375B"></stop> <stop offset="0.4797" style="stop-color:#763446"></stop> <stop offset="0.9578" style="stop-color:#C8181A"></stop> <stop offset="0.9816" style="stop-color:#CC1517"></stop> </linearGradient> <polygon class="st35" points="129.1,506.1 128.1,201.4 129.9,201.4 130.9,506.1 "></polygon> </g> <g> <linearGradient id="SVGID_48_" gradientUnits="userSpaceOnUse" x1="406.4768" y1="134.9892" x2="667.6025" y2="134.9892" gradientTransform="matrix(0.9929 -1.053151e-02 2.187188e-03 0.9975 -10.7903 -3.9601)"> <stop offset="0" style="stop-color:#1C3761"></stop> <stop offset="0.1512" style="stop-color:#3C375B"></stop> <stop offset="0.4797" style="stop-color:#763446"></stop> <stop offset="0.9578" style="stop-color:#C8181A"></stop> <stop offset="0.9816" style="stop-color:#CC1517"></stop> </linearGradient> <polygon class="st36" points="651.6,200.7 392.9,50.8 393.8,49.3 652.5,199.2 "></polygon> </g> <g> <linearGradient id="SVGID_49_" gradientUnits="userSpaceOnUse" x1="520.6016" y1="240.8107" x2="648.3896" y2="240.8107"> <stop offset="0" style="stop-color:#1C3761"></stop> <stop offset="0.1512" style="stop-color:#3C375B"></stop> <stop offset="0.4797" style="stop-color:#763446"></stop> <stop offset="0.9578" style="stop-color:#C8181A"></stop> <stop offset="0.9816" style="stop-color:#CC1517"></stop> </linearGradient> <polygon class="st37" points="521.5,278.1 520.6,276.6 647.5,203.5 648.4,205 "></polygon> </g> <g> <linearGradient id="SVGID_50_" gradientUnits="userSpaceOnUse" x1="380.1748" y1="573.7012" x2="641.085" y2="573.7012" gradientTransform="matrix(0.9972 5.456774e-03 -2.309229e-03 0.9991 15.5992 8.5181)"> <stop offset="0" style="stop-color:#1C3761"></stop> <stop offset="0.1512" style="stop-color:#3C375B"></stop> <stop offset="0.4797" style="stop-color:#763446"></stop> <stop offset="0.9578" style="stop-color:#C8181A"></stop> <stop offset="0.9816" style="stop-color:#CC1517"></stop> </linearGradient> <polygon class="st38" points="394.1,658.7 393.2,657.2 652.9,510.2 653.7,511.8 "></polygon> </g> <linearGradient id="SVGID_51_" gradientUnits="userSpaceOnUse" x1="-2187.1631" y1="5036.0635" x2="-2158.7327" y2="5036.0635" gradientTransform="matrix(-1 0 0 -1 -1519.636 5237.4102)"> <stop offset="0" style="stop-color:#1C3761"></stop> <stop offset="0.1512" style="stop-color:#3C375B"></stop> <stop offset="0.4797" style="stop-color:#763446"></stop> <stop offset="0.9578" style="stop-color:#C8181A"></stop> <stop offset="0.9816" style="stop-color:#CC1517"></stop> </linearGradient> <ellipse class="st39" cx="653.3" cy="201.3" rx="14.2" ry="14.3"></ellipse> <linearGradient id="SVGID_52_" gradientUnits="userSpaceOnUse" x1="-2293.4585" y1="5221.1406" x2="-2265.0283" y2="5221.1406" gradientTransform="matrix(-1 0 0 -1 -1887.1337 5879.1177)"> <stop offset="0" style="stop-color:#1C3761"></stop> <stop offset="0.1512" style="stop-color:#3C375B"></stop> <stop offset="0.4797" style="stop-color:#763446"></stop> <stop offset="0.9578" style="stop-color:#C8181A"></stop> <stop offset="0.9816" style="stop-color:#CC1517"></stop> </linearGradient> <ellipse class="st40" cx="392.1" cy="658" rx="14.2" ry="14.3"></ellipse> <linearGradient id="SVGID_53_" gradientUnits="userSpaceOnUse" x1="794.2007" y1="6049.52" x2="822.738" y2="6049.52" gradientTransform="matrix(-0.3525 -0.9358 0.9358 -0.3525 -5247.3179 3090.3142)"> <stop offset="0" style="stop-color:#1C3761"></stop> <stop offset="0.1512" style="stop-color:#3C375B"></stop> <stop offset="0.4797" style="stop-color:#763446"></stop> <stop offset="0.9578" style="stop-color:#C8181A"></stop> <stop offset="0.9816" style="stop-color:#CC1517"></stop> </linearGradient> <ellipse class="st41" cx="129" cy="201.4" rx="14.2" ry="14.3"></ellipse> <linearGradient id="SVGID_54_" gradientUnits="userSpaceOnUse" x1="180.3881" y1="167.4255" x2="194.6032" y2="167.4255"> <stop offset="0" style="stop-color:#1C3761"></stop> <stop offset="0.1512" style="stop-color:#3C375B"></stop> <stop offset="0.4797" style="stop-color:#763446"></stop> <stop offset="0.9578" style="stop-color:#C8181A"></stop> <stop offset="0.9816" style="stop-color:#CC1517"></stop> </linearGradient> <ellipse class="st42" cx="187.5" cy="167.4" rx="7.1" ry="7.1"></ellipse> <linearGradient id="SVGID_55_" gradientUnits="userSpaceOnUse" x1="229.8579" y1="138.7673" x2="244.0731" y2="138.7673"> <stop offset="0" style="stop-color:#1C3761"></stop> <stop offset="0.1512" style="stop-color:#3C375B"></stop> <stop offset="0.4797" style="stop-color:#763446"></stop> <stop offset="0.9578" style="stop-color:#C8181A"></stop> <stop offset="0.9816" style="stop-color:#CC1517"></stop> </linearGradient> <ellipse class="st43" cx="237" cy="138.8" rx="7.1" ry="7.1"></ellipse> <linearGradient id="SVGID_56_" gradientUnits="userSpaceOnUse" x1="279.6512" y1="110.2264" x2="293.8664" y2="110.2264"> <stop offset="0" style="stop-color:#1C3761"></stop> <stop offset="0.1512" style="stop-color:#3C375B"></stop> <stop offset="0.4797" style="stop-color:#763446"></stop> <stop offset="0.9578" style="stop-color:#C8181A"></stop> <stop offset="0.9816" style="stop-color:#CC1517"></stop> </linearGradient> <ellipse class="st44" cx="286.8" cy="110.2" rx="7.1" ry="7.1"></ellipse> <linearGradient id="SVGID_57_" gradientUnits="userSpaceOnUse" x1="328.4501" y1="81.5682" x2="342.6653" y2="81.5682"> <stop offset="0" style="stop-color:#1C3761"></stop> <stop offset="0.1512" style="stop-color:#3C375B"></stop> <stop offset="0.4797" style="stop-color:#763446"></stop> <stop offset="0.9578" style="stop-color:#C8181A"></stop> <stop offset="0.9816" style="stop-color:#CC1517"></stop> </linearGradient> <ellipse class="st45" cx="335.6" cy="81.6" rx="7.1" ry="7.1"></ellipse> <linearGradient id="SVGID_58_" gradientUnits="userSpaceOnUse" x1="647.9096" y1="436.9021" x2="662.1282" y2="436.9021"> <stop offset="0" style="stop-color:#1C3761"></stop> <stop offset="0.1512" style="stop-color:#3C375B"></stop> <stop offset="0.4797" style="stop-color:#763446"></stop> <stop offset="0.9578" style="stop-color:#C8181A"></stop> <stop offset="0.9816" style="stop-color:#CC1517"></stop> </linearGradient> <ellipse class="st46" cx="655" cy="436.9" rx="7.1" ry="7.1"></ellipse> <linearGradient id="SVGID_59_" gradientUnits="userSpaceOnUse" x1="647.9096" y1="378.4656" x2="662.1282" y2="378.4656"> <stop offset="0" style="stop-color:#1C3761"></stop> <stop offset="0.1512" style="stop-color:#3C375B"></stop> <stop offset="0.4797" style="stop-color:#763446"></stop> <stop offset="0.9578" style="stop-color:#C8181A"></stop> <stop offset="0.9816" style="stop-color:#CC1517"></stop> </linearGradient> <ellipse class="st47" cx="655" cy="378.5" rx="7.1" ry="7.1"></ellipse> <linearGradient id="SVGID_60_" gradientUnits="userSpaceOnUse" x1="647.9096" y1="320.2986" x2="662.1282" y2="320.2986"> <stop offset="0" style="stop-color:#1C3761"></stop> <stop offset="0.1512" style="stop-color:#3C375B"></stop> <stop offset="0.4797" style="stop-color:#763446"></stop> <stop offset="0.9578" style="stop-color:#C8181A"></stop> <stop offset="0.9816" style="stop-color:#CC1517"></stop> </linearGradient> <ellipse class="st48" cx="655" cy="320.3" rx="7.1" ry="7.1"></ellipse> <linearGradient id="SVGID_61_" gradientUnits="userSpaceOnUse" x1="647.9096" y1="265.1497" x2="662.1282" y2="265.1497"> <stop offset="0" style="stop-color:#1C3761"></stop> <stop offset="0.1512" style="stop-color:#3C375B"></stop> <stop offset="0.4797" style="stop-color:#763446"></stop> <stop offset="0.9578" style="stop-color:#C8181A"></stop> <stop offset="0.9816" style="stop-color:#CC1517"></stop> </linearGradient> <ellipse class="st49" cx="655" cy="265.1" rx="7.1" ry="7.1"></ellipse> <g> <defs> <path id="SVGID_7_" d="M344.2,436.7c-0.8-0.8-1.3-0.9-2-0.2c-1.4,1.3-2.6,0.4-2.8-2.2c-0.1-1.2-0.5-2.2-1-2.2 c-0.4,0-0.6,0.3-0.4,0.6c0.7,1-0.7,2.8-2,2.4c-1.4-0.4-2.3-6.5-0.9-6.6c0.4,0,0.6-2.7,0.3-6.5c-0.4-5.9-0.3-6.7,1.6-9.7 c2.1-3.3,2-5.7-0.1-5.5c-1.5,0.1-2.3-2-1.3-3.4c0.6-0.9,0.6-2.7,0-6.2c-1.4-8.2-1.9-9.3-4.2-10.1c-1.9-0.6-2.2-1.1-2.4-4.2 c-0.2-2.5,0.1-3.8,1-4.4c1.2-0.8,1.2-1,0-1.7c-2-1.2-0.1-5.3,2.6-5.8c2.4-0.5,2.8,0.7,0.8,2.7c-2.1,2.1-1.6,3.7,1.4,4.6 c1.9,0.5,3.6,0.5,5.8-0.2c3.6-1.1,3.3-0.8,4.6-3.9c0.6-1.5,2.7-3.5,5.4-5.2l4.4-2.8l3,2.9c1.6,1.6,3,3.4,3.1,4 c0,0.6,0.8,1.1,1.6,1c1.1-0.1,1.6,0.4,1.7,1.8c0.1,1.4-0.3,2-1.4,2c-0.8,0.1-1.5,0.5-1.5,0.9c0,0.4,0.9,0.7,1.9,0.6 c1.9-0.1,2.1,0.1,3.7,7.2c0.6,2.8,0.4,3.6-1.4,6.3c-2.5,3.7-2.8,5.7-1,7.9c1.2,1.5,1.3,2.1,0.1,7.7c-1,4.5-1.1,6.8-0.5,9.1 c0.7,2.5,0.6,3.3-0.4,4.3c-0.7,0.7-1.1,1.8-0.9,2.6c0.2,0.7-0.2,1.6-0.8,1.9c-0.6,0.3-1.1,1.4-1,2.4c0.2,2.5-1.4,2.4-4.2-0.2 c-3.9-3.5-6.7-2.2-6.3,2.9c0.2,2.4-0.2,3.1-2.3,4.6C345.5,438,345.5,438,344.2,436.7z M515.2,458.4c-1.5-0.5-1-8,0.8-11.5 c1.1-2.1,1.2-3.9,0.8-7.6c-0.7-5.5,0.4-7.3,4.5-7.6c2.8-0.2,3.5-3.9,1.2-6.2c-0.9-0.8-2.3-4-3.3-7.1c-1.2-3.9-2.4-6-3.9-7 c-1.6-1.1-2.6-3.1-4-7.8c-2.7-9.2-5.3-12.1-7.1-8c-0.4,0.9-1.2,1.7-1.7,1.7c-1.3,0.1-4.8-2.5-4.9-3.6c0-0.5-1.6-1.2-3.6-1.6 c-4.8-1-4.9-1.2-3.9-5c0.8-2.9,0.7-3.6-1-6.5c-1.8-3.1-1.9-3.2-4.7-2.4c-1.6,0.5-4.2,1.2-5.9,1.6l-3,0.8l0-3.5l0-3.5l-3.5,0 c-2.9,0-3.7-0.4-4.6-2.1c-0.6-1.2-2.7-3.9-4.5-6.2c-3.4-4-3.5-4.1-6.5-3.3c-1.7,0.4-3.6,0.4-4.1,0c-1.2-0.8-5.4,0.1-5.4,1.1 c0,0.4-0.8,0.8-1.9,0.9c-1.5,0.1-2.5-0.7-4.1-3c-1.7-2.5-2.6-3.2-5.1-3.4c-2.5-0.2-3.9-1.2-7.9-5.4c-3.1-3.3-4.9-5.9-5-7.3 c-0.1-1.4-0.6-2.1-1.4-2c-2.3,0.2-8.7-4.3-10.6-7.3c-1.3-2.2-2.7-3.3-5.3-4.1c-2.4-0.8-3.6-0.8-4-0.2c-0.3,0.6-1.2,0.7-3.1,0.2 c-2.7-0.7-3.5-2.6-2-4.4c1.1-1.3-3.3-6.3-5.9-6.8c-1.3-0.2-2.1-1.1-2.6-3c-0.6-2.2-1.2-2.8-3.3-3.2c-2.6-0.5-2.6-0.5-3.5-6.5 c-0.5-3.8-1.4-6.8-2.4-8.1c-0.9-1.1-1.7-3.3-1.8-4.9c-0.3-4.5-2.3-10.6-4-11.9c-0.8-0.6-3.1-1.6-5.1-2.2c-2-0.5-5.1-1.8-7-2.8 c-1.9-1-5.8-3.1-8.6-4.6c-2.8-1.5-6.6-2.8-8.4-3c-3.2-0.3-3.5-0.1-7,4.2c-2,2.5-4.3,5.5-5.2,6.8c-2.4,3.6-7.3,6.1-12.8,6.5 l-4.8,0.3l0.4-2.7c0.2-1.5,1-3.8,1.7-5c1.7-3.1,0.8-3.7-5.9-3.9l-5.6-0.2l-3.1-6.3c-2.8-5.6-3-6.4-1.9-7.3 c1.5-1.3,2.2-7,0.8-6.9c-0.5,0-1.6-1.2-2.5-2.7c-0.8-1.5-2.2-2.9-3-3.1c-1.1-0.3-1.6-1.2-1.7-3.2l-0.2-2.9l3.6,0.3 c3.2,0.2,3.8,0,5.5-1.9c1.1-1.2,2.3-2.2,2.8-2.3c2.1-0.1,0.4-5.1-3.1-9.2l-3.6-4.3l2.5-2.9c2.1-2.5,3-3,6.4-3.2 c2.2-0.2,5.5-0.8,7.5-1.4c2.5-0.8,4.1-1,5.5-0.5c2.8,1.1,6.3-1.8,7.3-6c0.4-1.8,1.4-3.7,2.3-4.3c0.8-0.5,1.5-1.7,1.4-2.6 c-0.1-1.9,1.3-2.1,3.5-0.6c1.2,0.8,1.5,1.7,1.3,3.7c-0.2,2,0.2,3.2,1.4,4.6l1.7,1.9l1.8-1.9c2-2.2,2.9-2.4,4.4-1.2 c0.7,0.7,0.8,1.4,0,3.1c-1.1,2.5-0.2,6.6,1.5,7c0.7,0.2,0.9-1,0.7-3.8c-0.2-3.5,0-4.3,1.9-5.9c1.4-1.2,2.5-3.1,3-5.5 c0.7-3.3,1-3.8,3.1-3.9c2.1-0.1,2.3,0.1,2.5,2.8c0.2,2.7,0.4,2.9,2,2.3c1-0.4,3.1-1,4.7-1.3c2.6-0.6,3.1-0.4,4.1,1.4 c0.6,1.1,1.4,2,1.7,2c1.5-0.1,1.2-1.4-0.9-4.1l-2.3-3l1.9-2.2c1.8-2.1,2.2-2.2,4.5-1.4c3.4,1.2,4.2,0.3,3.9-4.3l-0.3-4l3.4-0.2 c2.3-0.2,4,0.3,5.3,1.4c2.4,1.9,3.8,1,4.9-3.4c0.7-2.6,1-2.8,4.1-3.1c1.9-0.1,3.9,0.1,4.4,0.6c0.7,0.6,1.6,0.6,3.4-0.3 c1.8-0.9,2.7-1,3.5-0.4c0.9,0.6,1.6,0.3,2.9-1.3c2.3-2.8,8.7-3.6,8.8-1.1c0.1,0.9-1,2.4-2.4,3.4l-2.5,1.9l2.2-0.1 c1.6-0.1,2.4,0.3,2.8,1.7c0.3,1,2.4,3.1,4.6,4.5c4,2.6,4.1,2.7,14.3,2.5c5.7-0.1,10.4,0,10.6,0.3c0.2,0.3,0.2,1.4,0.1,2.6 c-0.2,1.5-1.1,2.6-3.3,3.8c-3.2,1.7-3.3,3.1-0.1,2.8c1.1-0.1,2.4,0.5,2.9,1.4c1.4,2.3,1.2,3.2-0.6,3.3c-2.6,0.2-2.7,2.5-0.2,4.6 c1.2,1,2.3,2.5,2.4,3.3c0.1,0.8,0.8,2,1.7,2.7c1,0.8,1.5,2,1.4,3.3c-0.3,2.6-1.9,2.7-3.7,0.3c-1.3-1.7-1.8-1.8-4.9-1.2 c-1.9,0.4-4.2,0.4-5.1,0c-2.3-1-3.9-0.1-2.3,1.3c0.7,0.6,1.3,1.5,1.3,1.9c0.1,1.1-7.1,5.1-8.7,4.9c-0.7-0.1-1.7,0.4-2.2,1 c-0.8,1.1-1.2,1.1-3.1,0.3c-2.8-1.2-3.3-0.8-4.2,3.2c-0.7,3-0.6,3.4,1.1,5c1,1,1.9,2.5,2,3.4c0.1,0.9,0.7,1.9,1.4,2.1 c0.8,0.3,1.3,1.5,1.5,3.6c0.2,3.1-0.6,4.3-1.8,2.6c-1.2-1.7-3.6,1.4-3.3,4.3c0.3,4.1,2.9,12.6,4.3,14.1c5.8,6.5,7.4,7.8,9.2,7.7 c1.2-0.1,3.1,0.9,5.1,2.8c1.9,1.8,4.7,3.3,7.2,4c5.5,1.4,6.7,2.3,7.7,5.7c0.4,1.5,1.7,4,2.8,5.5c1.3,1.7,2.4,4.6,3,7.9 c1.5,8.6,4.5,13.6,11.6,19.5c3.4,2.9,6.6,5.2,7,5.2c0.4,0,2.3,1.1,4.2,2.5c1.9,1.4,3.9,2.6,4.5,2.5c0.5,0,2,0.6,3.3,1.5 c2.1,1.4,2.6,1.4,5.4,0.4c2.1-0.8,4.1-1,6.5-0.6c2.5,0.4,4.2,0.2,6.4-0.8c2.6-1.1,3.2-1.1,5.5,0.1c3.3,1.8,3,4-1,6.9 c-4.3,3.2-3.5,7.9,1.2,7.6c1-0.1,2.8,0.7,3.8,1.6c1.1,1,4.9,2.5,8.9,3.6c8,2,20.3,7.3,22,9.5c1.4,1.8,7.3,3.5,11,3.2 c2.2-0.2,3,0.2,3.9,2c0.6,1.2,3.2,3.9,5.7,6.1c5.3,4.6,5.9,6.1,5.6,13.2c-0.1,4-0.6,5.5-1.7,6.2c-2.2,1.4-6.3-1.4-8.5-5.6 c-1-1.9-2.6-4.5-3.7-5.7c-1.8-2.1-2.4-2.3-6.7-2c-5.4,0.4-9.2-1.1-10.1-3.8c-0.5-1.5-3.7-3.4-5.5-3.3c-0.8,0.1-1.9,3.5-2.4,7.1 c-0.2,1.5-1,2.9-2,3.4c-1.4,0.7-1.8,1.8-2,5.2c-0.1,2.3-0.9,5.6-1.8,7.3c-1.5,2.9-1.5,3.1-0.1,4.5c0.9,0.9,3.1,1.6,5.5,1.7 c2.9,0.2,4.1,0.7,4.5,1.7c0.3,0.8,1.6,1.9,2.9,2.5c2.1,0.9,2.4,1.5,3.2,6.9c0.5,3.2,1.1,6.7,1.3,7.8c0.3,1.8,0,2.1-5.2,3.5 c-7.2,1.9-8.2,3.4-7.8,10.4c0.3,5,0.2,5.3-2.6,8.1c-1.7,1.7-3.1,4-3.3,5.4c-0.2,1.4-1.2,3.6-2.2,5c-1.6,2.2-2.4,2.6-6,2.8 C518.2,458.6,515.8,458.6,515.2,458.4z M500.2,498.5c-1-0.9-3.1-1.2-7-1.2c-5.5,0-5.5,0-7.3-2.9c-2.2-3.6-6.5-5.6-12.3-5.6 c-3.9,0-4.5-0.3-6.3-2.5c-1.7-2.2-2.4-2.5-5.2-2.3c-2.9,0.2-3.4,0-4.4-2c-1.3-2.5-4.8-5-7-4.9c-0.8,0.1-1.9-0.3-2.4-0.7 c-0.7-0.6-1.5-0.6-3.1,0.2c-2,1-2.4,0.9-5.1-1.4c-4-3.3-4.6-5.6-2.8-10.4c0.8-2.1,1.9-3.9,2.5-4c0.6,0,1.4-0.8,1.9-1.7 c1.1-2.2,1.6-2.1,2.9,0.6c1.5,2.9,3.8,2.8,4.7-0.2c0.5-1.8,1.2-2.4,3.4-2.9c1.5-0.3,3.3-0.9,4-1.2c0.9-0.4,1.4,0,1.8,1.7 c0.5,2,1,2.3,3,2.1c1.3-0.1,2.5,0.3,2.8,0.8c0.4,0.8,2.7,0.9,9.8,0.4c9.9-0.6,10.8-1,14.9-5.3c1.7-1.8,2.2-2,4-1.3 c3.1,1.2,6,0.7,7-1.2c0.5-1,1.4-1.5,2.1-1.3c0.6,0.2,2.2-0.2,3.4-1c2.7-1.6,5.6-1.2,4.9,0.7c-0.2,0.7-0.6,2-0.7,2.9 c-0.2,0.9-0.9,2.5-1.6,3.7c-0.7,1.2-1.2,2.4-1.2,2.8c0,0.4-1,1.7-2.2,2.9c-1.8,1.8-2.1,2.6-1.6,4.2c0.4,1.3,0.2,2.6-0.8,4 c-1.8,2.7-1.6,5.1,0.4,6.8c1.7,1.4,2.3,3.3,1,3.4c-1.4,0.1-0.7,2.3,1,3c2.3,1.1,2.3,4.2,0,5c-1.7,0.6-1.8,1-1.6,5.2 C503.6,500,502.8,500.8,500.2,498.5L500.2,498.5z"></path> </defs> <linearGradient id="SVGID_62_" gradientUnits="userSpaceOnUse" x1="293.2951" y1="340.5565" x2="574.777" y2="340.5565"> <stop offset="0" style="stop-color:#1C3761"></stop> <stop offset="0.1512" style="stop-color:#3C375B"></stop> <stop offset="0.4797" style="stop-color:#763446"></stop> <stop offset="0.9578" style="stop-color:#C8181A"></stop> <stop offset="0.9816" style="stop-color:#CC1517"></stop> </linearGradient> <use href="#SVGID_7_" style="overflow:visible;fill-rule:evenodd;clip-rule:evenodd;fill:url(#SVGID_62_);"></use> <clipPath id="SVGID_63_"> <use href="#SVGID_7_" style="overflow:visible;"></use> </clipPath> <linearGradient id="SVGID_64_" gradientUnits="userSpaceOnUse" x1="290.3812" y1="340.5564" x2="577.6908" y2="340.5564"> <stop offset="0" style="stop-color:#1C3761"></stop> <stop offset="0.1512" style="stop-color:#3C375B"></stop> <stop offset="0.4797" style="stop-color:#763446"></stop> <stop offset="0.9578" style="stop-color:#C8181A"></stop> <stop offset="0.9816" style="stop-color:#CC1517"></stop> </linearGradient> <rect x="290.4" y="178.4" class="st50" width="287.3" height="324.2"></rect> </g> <g> <path id="SVGID_6_" class="st22" d="M399,560.7l2.7,19.4h12.1v-16c0-1.6,0.8-3,2.5-3c1.6,0,2.4,1.4,2.4,3v16.1h14.7v-18.7 c0-3.8-0.9-6.6-2.5-8.8c-1.5-2-4.4-3.5-7.9-3.5c-2.3,0-4.6,0.8-5.9,1.8c-0.8,0.6-1.3,1.1-2.1,1.8c-0.3,0.3-1.8,1.9-2,1.9l-0.2,0 l0.6-4.9H399V560.7z"></path> <path id="SVGID_5_" class="st22" d="M356.1,566.1c0,0.1,0.2,2,0.3,2.3c0.1,0.7,0.3,1.4,0.5,2c0.2,1,1,2.7,1.5,3.4 c0.7,1.1,1.4,1.8,2.3,2.8c0.9,0.9,1.8,1.4,2.9,2.1c1.7,1.1,5.2,2.1,8,2c1.9,0,2.9,0,4.6-0.3c1-0.2,3.2-0.7,3.9-1l0.6-12.3 c-1.8,0.9-2.7,2.3-5.6,2.3c-2,0-3.2-1.2-3.9-2.5c-0.8-1.6-0.3-3.8,0.6-4.8c1-1,2.9-1.9,4.8-1.3c0.8,0.3,1.6,0.5,2.2,1 c0.7,0.4,1.2,0.9,1.8,1.4v-0.7l-0.9-6.5l0.9-0.3v-4.5l-0.8-0.5c-1.3-0.3-2.4-0.7-3.9-0.9c-1.1-0.2-3.2-0.4-4.4-0.4 c-4.7,0-8.5,2-10.9,4.4c-1.2,1.2-2.5,2.8-3.1,4.5c-0.4,0.9-0.7,1.9-1,2.9c-0.1,0.4-0.4,3.3-0.5,3.4V566.1z"></path> <polygon id="SVGID_4_" class="st23" points="381.9,555.7 381,556 381.9,562.4 385.5,588 385.7,588 400.3,583.5 399.8,580.1 397.1,560.7 395.8,551.5 395.8,551.4 "></polygon> <rect id="SVGID_3_" x="435.6" y="549.7" class="st22" width="14.7" height="30.4"></rect> <path id="SVGID_2_" class="st23" d="M381.1,550.7l0.8,0.5c0.8,0.4,1.8,0.7,2.9,0.7h0.4c2.2,0,4.8-1.2,6.2-2.1 c0.2-0.1,0.8-0.7,1.1-1c0.6-0.5,0.5-0.6,0.9-1c0.3-0.3,0.6-0.8,0.8-1.3c0.1-0.3,0.5-1.2,0.7-1.5l0.3-2.4l0-0.1l-0.3-2l-0.1,0h0.1 c-0.1-0.8-0.8-2-1.1-2.5c-0.5-0.7-1.3-1.3-2.1-1.7c-1.8-0.9-4.5-0.7-6.3,0c-0.4,0.2-0.9,0.4-1.3,0.5c-0.5,0.2-0.7,0.5-1.2,0.7 c-0.2,0.1-1,0.7-1.1,0.8c-0.1,0.1-0.3,0.3-0.5,0.5c-0.4,0.3-0.2,0.2-0.4,0.5c-1,1.1-2.3,3.2-2.3,5.3c0,0.7,0.1,1.4,0.2,1.9 c0,0.5,0.4,1.1,0.4,1.6C379.5,549.1,380.6,550,381.1,550.7"></path> <path id="SVGID_1_" class="st22" d="M443.1,547.5c2.3,0,4.1-0.7,5.6-1.7c1.2-0.8,2.4-2.9,2.4-4.9v-0.5c0-1.2-0.1-2-0.5-2.8 c0.3-0.1-0.8-1.6-1-1.8c-0.6-0.6-0.9-0.9-1.6-1.4c-1.2-0.8-2.9-1.2-4.9-1.2c-2.7,0-4.3,0.7-5.8,1.9c-1.4,1.2-2.4,2.9-2.3,5.3 C435.1,544.8,438.2,547.5,443.1,547.5"></path> </g> <linearGradient id="SVGID_65_" gradientUnits="userSpaceOnUse" x1="-3581.6023" y1="3854.0613" x2="-3553.1238" y2="3854.0613" gradientTransform="matrix(-0.778 0.6282 -0.6282 -0.778 -225.0865 5750.5317)"> <stop offset="0" style="stop-color:#1C3761"></stop> <stop offset="0.1512" style="stop-color:#3C375B"></stop> <stop offset="0.4797" style="stop-color:#763446"></stop> <stop offset="0.9578" style="stop-color:#C8181A"></stop> <stop offset="0.9816" style="stop-color:#CC1517"></stop> </linearGradient> <ellipse class="st51" cx="129.4" cy="510.9" rx="14.2" ry="14.3"></ellipse> <linearGradient id="SVGID_66_" gradientUnits="userSpaceOnUse" x1="-2187.1631" y1="5160.2139" x2="-2158.7327" y2="5160.2139" gradientTransform="matrix(-1 0 0 -1 -1519.636 5671.2168)"> <stop offset="0" style="stop-color:#1C3761"></stop> <stop offset="0.1512" style="stop-color:#3C375B"></stop> <stop offset="0.4797" style="stop-color:#763446"></stop> <stop offset="0.9578" style="stop-color:#C8181A"></stop> <stop offset="0.9816" style="stop-color:#CC1517"></stop> </linearGradient> <ellipse class="st52" cx="653.3" cy="511" rx="14.2" ry="14.3"></ellipse> <linearGradient id="SVGID_67_" gradientUnits="userSpaceOnUse" x1="-2293.4585" y1="4974.876" x2="-2265.0283" y2="4974.876" gradientTransform="matrix(-1 0 0 -1 -1887.1337 5023.6099)"> <stop offset="0" style="stop-color:#1C3761"></stop> <stop offset="0.1512" style="stop-color:#3C375B"></stop> <stop offset="0.4797" style="stop-color:#763446"></stop> <stop offset="0.9578" style="stop-color:#C8181A"></stop> <stop offset="0.9816" style="stop-color:#CC1517"></stop> </linearGradient> <ellipse class="st53" cx="392.1" cy="48.7" rx="14.2" ry="14.3"></ellipse> <linearGradient id="SVGID_68_" gradientUnits="userSpaceOnUse" x1="383.9307" y1="602.7801" x2="398.1492" y2="602.7801"> <stop offset="0" style="stop-color:#1C3761"></stop> <stop offset="0.1512" style="stop-color:#3C375B"></stop> <stop offset="0.4797" style="stop-color:#763446"></stop> <stop offset="0.9578" style="stop-color:#C8181A"></stop> <stop offset="0.9816" style="stop-color:#CC1517"></stop> </linearGradient> <ellipse class="st54" cx="391" cy="602.8" rx="7.1" ry="7.1"></ellipse> </g> <g> <g> <path class="st28" d="M86.7,578.9c-2.3-3.5-3.4-6.8-3.2-9.8c0.2-3,1.8-5.4,4.8-7.3c3.1-1.9,4.7-2.9,7.8-4.8 c3-1.9,5.8-2.3,8.5-1.2c2.6,1,5,3.1,7.1,6.4c0.1,0.1,0.1,0.1,0.2,0.2c2.1,3.2,3.1,6.2,3,9c-0.1,2.8-1.6,5.3-4.4,7.4 c-1-1.4-1.5-2.1-2.4-3.5c2.2-1.6,3.4-3.3,3.5-5.1c0.2-1.8-0.5-3.9-2.1-6.3c-0.1-0.1-0.1-0.1-0.2-0.2c-1.6-2.4-3.2-3.9-4.9-4.4 c-1.7-0.6-3.7-0.1-6,1.3c-3.1,2-4.6,2.9-7.7,4.9c-2.3,1.5-3.5,3.1-3.7,5c-0.2,1.9,0.6,4.1,2.2,6.7c0.1,0.1,0.1,0.2,0.2,0.3 c1.7,2.6,3.4,4.1,5.2,4.7c1.8,0.6,3.8,0,6-1.5c1,1.4,1.5,2.1,2.5,3.5c-2.9,2.1-5.7,2.7-8.4,1.7c-2.8-1-5.3-3.2-7.6-6.7 C86.8,579,86.8,579,86.7,578.9z"></path> <path class="st28" d="M105.2,604c3.9-3.2,5.9-4.7,9.8-7.9c2.2-8,3.4-11.9,6-19.6c1,1.4,1.6,2.1,2.6,3.5 c-2.1,6.1-3.1,9.2-4.9,15.5c0.1,0.2,0.2,0.2,0.3,0.4c6.4-0.5,9.6-0.8,15.9-1.5c1.1,1.3,1.7,2,2.8,3.3c-7.9,0.9-12,1.3-20.1,1.8 c-3.9,3.2-5.8,4.8-9.7,8C106.8,606.1,106.3,605.4,105.2,604z"></path> <path class="st28" d="M143.7,625.4c2.5,3.7,2.5,6.8,0.1,9.5c-0.1,0.1-0.1,0.1-0.2,0.2c-1.7,1.8-3.8,2.6-6.1,2.2 c-2.3-0.4-4.8-1.8-7.3-4.4c-3.9-4-5.8-6.1-9.5-10.3c7.2-6.6,14.4-13.2,21.5-19.8c3.1,3.5,4.6,5.2,7.8,8.5c2.3,2.4,3.7,4.7,4,6.9 c0.4,2.2-0.3,4.2-1.9,5.8c-0.1,0.1-0.2,0.2-0.3,0.3c-2.1,2.2-4.7,2.5-7.9,0.7C143.9,625.2,143.8,625.3,143.7,625.4z M149.1,621.4 c1.1-1.1,1.6-2.4,1.4-3.7c-0.2-1.3-1.1-2.7-2.6-4.4c-2.1-2.2-3.2-3.3-5.2-5.6c-2.9,2.7-4.3,4.1-7.2,6.8c2.1,2.3,3.2,3.5,5.4,5.8 c1.6,1.7,3.1,2.7,4.4,2.9c1.3,0.2,2.5-0.3,3.7-1.5C149,621.5,149.1,621.5,149.1,621.4z M140.7,632c0.1-0.1,0.1-0.1,0.2-0.2 c1.2-1.2,1.7-2.5,1.5-3.9c-0.2-1.3-1.1-2.8-2.8-4.6c-2.6-2.7-3.9-4.1-6.4-6.8c-3,2.9-4.6,4.3-7.6,7.1c2.6,2.9,3.9,4.3,6.6,7 c1.7,1.8,3.2,2.7,4.6,2.9C138.2,633.9,139.5,633.3,140.7,632z"></path> <path class="st28" d="M178.3,641.6c-5.3-4.4-7.9-6.6-13.1-11.3c-2.7,3-4,4.6-6.7,7.6c4,3.6,6,5.3,10,8.8 c-0.8,0.9-1.1,1.4-1.9,2.3c-4.1-3.4-6.1-5.2-10.1-8.8c-2.7,3.1-4.1,4.6-6.8,7.7c5.5,5,8.3,7.4,14,12.1c-0.7,0.9-1.1,1.4-1.8,2.3 c-7-5.7-10.5-8.7-17.2-15c6.5-7.2,13.1-14.5,19.6-21.7c6.2,5.8,9.4,8.5,15.8,13.8C179.4,640.2,179.1,640.6,178.3,641.6z"></path> <path class="st28" d="M199,664.4c-3,4.5-7.2,5.2-12.4,2c0,0.1-0.1,0.1-0.1,0.2c0.2,5.8,0.4,8.7,0.9,14.5c-1.5-1-2.3-1.6-3.8-2.6 c-0.4-5.9-0.5-8.9-0.7-14.8c-1.7-1.3-2.6-1.9-4.3-3.2c-2.8,3.7-4.1,5.6-6.9,9.3c-1.3-1-2-1.5-3.3-2.5 c5.9-7.8,11.8-15.6,17.7-23.3c3.7,2.9,5.6,4.3,9.3,7c5.7,4.1,6.9,8.4,3.7,13.4C199.1,664.4,199.1,664.4,199,664.4z M196,662.2 c1.2-1.8,1.6-3.4,1.3-4.7c-0.4-1.3-1.5-2.7-3.5-4.1c-2.6-1.9-3.8-2.8-6.4-4.7c-2.8,3.8-4.2,5.7-7,9.5c2.6,2,3.9,3,6.6,4.9 c2,1.5,3.7,2.1,5.1,2.1c1.4-0.1,2.7-1,3.9-2.8C195.9,662.2,195.9,662.2,196,662.2z"></path> <path class="st28" d="M203.3,691.9c-3.4-2.1-5.7-4.4-6.8-7s-0.8-5.2,0.9-7.9c1.3,0.9,2,1.3,3.4,2.2c-1.3,2-1.6,3.8-0.9,5.4 c0.7,1.6,2.3,3.2,4.9,4.7c0.1,0.1,0.1,0.1,0.2,0.1c4.7,2.8,7.9,2.7,9.6-0.2c0.3-0.5,0.5-1,0.6-1.5c0.1-0.5,0-1-0.2-1.6 c-0.2-0.5-0.4-1-0.6-1.4c-0.2-0.4-0.5-0.9-1-1.5c-0.5-0.6-0.9-1-1.2-1.4c-0.3-0.3-0.8-0.8-1.4-1.5c-0.6-0.7-1.1-1.1-1.3-1.3 c-1.1-1.2-2-2.2-2.6-2.9c-0.6-0.8-1.2-1.8-1.9-3c-0.7-1.2-1-2.4-0.9-3.5s0.4-2.3,1.1-3.4c1.3-2,3.1-3,5.4-3.1 c2.3-0.1,4.8,0.7,7.5,2.3c0.1,0.1,0.1,0.1,0.2,0.1c2.9,1.8,4.9,3.8,5.9,6.2c1,2.4,0.8,4.9-0.8,7.7c-1.3-0.8-2-1.1-3.3-1.9 c1.2-2.1,1.4-3.9,0.8-5.3c-0.6-1.5-2-2.9-4.1-4.2c-0.1-0.1-0.1-0.1-0.2-0.1c-3.8-2.3-6.5-2.2-8.1,0.4c-0.2,0.3-0.3,0.6-0.4,1 c-0.1,0.3-0.2,0.7-0.2,0.9c0,0.3,0,0.6,0.1,1c0.1,0.4,0.2,0.7,0.3,0.9c0.1,0.2,0.2,0.6,0.5,1c0.3,0.4,0.5,0.7,0.6,0.9 c0.1,0.2,0.4,0.5,0.8,0.9c0.4,0.4,0.6,0.7,0.8,0.9c0.1,0.1,0.4,0.5,0.9,0.9c0.4,0.5,0.7,0.8,0.9,0.9c2.5,2.6,4.2,4.5,5,5.8 c1.7,2.7,1.9,5.3,0.6,7.7c-1.2,2.2-3.1,3.4-5.7,3.5c-2.6,0.1-5.6-0.8-8.8-2.7C203.4,692,203.4,691.9,203.3,691.9z"></path> <path class="st28" d="M252.3,687.3c-6.1-2.7-9.1-4.2-15-7.2c-1.8,3.6-2.7,5.4-4.6,9.1c4.6,2.3,6.9,3.5,11.5,5.6 c-0.5,1.1-0.7,1.6-1.2,2.7c-4.7-2.2-7-3.3-11.6-5.7c-1.8,3.7-2.8,5.5-4.6,9.2c6.4,3.3,9.6,4.8,16.1,7.7c-0.5,1.1-0.7,1.6-1.2,2.7 c-8-3.6-12-5.5-19.8-9.6c4.5-8.7,9-17.4,13.5-26.1c7.2,3.8,10.8,5.6,18.2,8.9C253,685.7,252.8,686.2,252.3,687.3z"></path> <path class="st28" d="M258.3,719c-3.5-1.4-5.9-3.3-7.3-5.7c-1.3-2.4-1.3-5.3,0.1-8.6c1.4-3.4,2.2-5.1,3.6-8.5 c1.4-3.3,3.4-5.3,5.9-6.1c2.5-0.8,5.4-0.6,8.6,0.7c0.1,0,0.1,0.1,0.2,0.1c3.2,1.3,5.5,3,6.8,5.3c1.3,2.3,1.4,5.1,0.2,8.5 c-1.4-0.5-2.1-0.8-3.6-1.3c0.9-2.6,1-4.6,0.2-6.1c-0.8-1.5-2.3-2.7-4.7-3.7c-0.1,0-0.1-0.1-0.2-0.1c-2.4-0.9-4.3-1.1-5.9-0.5 c-1.6,0.6-2.9,2.2-3.9,4.7c-1.4,3.4-2.1,5.1-3.5,8.5c-1,2.5-1.2,4.6-0.4,6.2c0.8,1.6,2.5,2.9,5,3.9c0.1,0,0.2,0.1,0.3,0.1 c2.5,1,4.7,1.2,6.3,0.5c1.6-0.6,2.9-2.2,3.8-4.8c1.5,0.5,2.2,0.8,3.7,1.3c-1.2,3.4-3,5.5-5.6,6.4c-2.6,0.9-5.7,0.7-9.2-0.7 C258.5,719,258.4,719,258.3,719z"></path> <path class="st28" d="M289.7,729.6c-3.6-1-6.1-2.7-7.6-4.8c-1.5-2.2-1.7-4.9-0.6-8.1c2.4-7.6,3.6-11.3,6-18.9 c1.4,0.5,2.1,0.7,3.5,1.1c-2.3,7.6-3.5,11.4-5.8,18.9c-0.7,2.4-0.7,4.3,0.2,5.7c0.9,1.4,2.6,2.5,5.2,3.2c0.1,0,0.2,0,0.3,0.1 c2.6,0.7,4.6,0.7,6.1,0c1.5-0.7,2.5-2.3,3.2-4.8c2-7.7,3-11.5,5-19.2c1.4,0.4,2.1,0.6,3.6,0.9c-1.9,7.7-2.9,11.5-4.8,19.2 c-0.8,3.3-2.4,5.4-4.8,6.5c-2.4,1.1-5.4,1.1-9,0.1C289.8,729.6,289.8,729.6,289.7,729.6z"></path> <path class="st28" d="M337.3,718.8c-0.8,5.3-4.2,7.8-10.2,7.2c0,0.1,0,0.1,0,0.2c2.5,5.1,3.8,7.7,6.6,12.7 c-1.8-0.3-2.6-0.4-4.4-0.7c-2.7-5.2-4-7.8-6.5-13c-2-0.4-3.1-0.6-5.1-1c-1,4.5-1.4,6.8-2.4,11.3c-1.6-0.3-2.3-0.5-3.9-0.8 c2.1-9.6,4.2-19.1,6.4-28.7c4.4,1,6.6,1.4,11,2.3c6.6,1.2,9.5,4.6,8.6,10.4C337.3,718.7,337.3,718.7,337.3,718.8z M333.6,718.1 c0.4-2.2,0.1-3.7-0.8-4.8c-0.9-1-2.4-1.7-4.7-2.2c-3-0.6-4.5-0.9-7.5-1.5c-1,4.6-1.5,7-2.4,11.6c3.1,0.7,4.6,1,7.8,1.5 c2.4,0.4,4.1,0.3,5.3-0.4c1.2-0.7,1.9-2.1,2.3-4.2C333.6,718.1,333.6,718.1,333.6,718.1z"></path> <path class="st28" d="M342.1,740.2c1.3-9.7,2.6-19.4,3.9-29.1c1.5,0.2,2.2,0.3,3.6,0.5c-1.2,9.7-2.4,19.5-3.6,29.2 C344.5,740.5,343.7,740.4,342.1,740.2z"></path> <path class="st28" d="M378.8,713.8c0,1.2-0.1,1.8-0.1,3c-3.9-0.1-5.9-0.2-9.7-0.5c-0.7,10.5-1,15.8-1.7,26.4 c-1.6-0.1-2.4-0.2-4-0.3c0.8-10.5,1.2-15.8,2-26.3c-3.9-0.3-5.8-0.5-9.7-0.9c0.1-1.2,0.2-1.8,0.3-3 C365,713.1,369.6,713.5,378.8,713.8z"></path> <path class="st28" d="M391.7,743.4c0-5.1,0-7.6,0-12.7c-4.4-6.7-6.5-10-10.4-16.8c1.6,0,2.4,0.1,3.9,0.1 c3.1,5.4,4.8,8.1,8.1,13.5c0.2,0,0.3,0,0.5,0c3.3-5.4,4.9-8.1,8-13.6c1.6,0,2.4-0.1,3.9-0.1c-3.9,6.9-5.9,10.3-10.2,17 c0.1,5.1,0.1,7.6,0.2,12.7C394.1,743.4,393.3,743.4,391.7,743.4z"></path> <path class="st29" d="M427.7,741.6c-1-9.8-1.9-19.5-2.9-29.3c2.2-0.2,3.3-0.3,5.5-0.6c5.9,9.3,9,13.9,15.5,23 c0.2,0,0.3,0,0.5-0.1c-1.5-9.8-2.2-14.7-3.7-24.5c1.4-0.2,2.1-0.3,3.5-0.6c1.6,9.7,3.2,19.3,4.7,29c-2.3,0.4-3.5,0.6-5.8,0.9 c-6.6-9.1-9.7-13.7-15.6-23c-0.2,0-0.3,0-0.4,0c1.1,9.9,1.6,14.8,2.7,24.7C430,741.4,429.3,741.5,427.7,741.6z"></path> <path class="st29" d="M480.2,732.5c-2-3.2-3.1-4.9-5.1-8.1c-4.6,1.1-6.8,1.6-11.4,2.6c-0.4,3.8-0.7,5.7-1.2,9.5 c-1.7,0.3-2.5,0.5-4.2,0.8c1.6-10.2,2.9-20.5,3.9-30.8c2.2-0.5,3.3-0.7,5.5-1.2c5.2,8.9,10.8,17.6,16.5,26.2 C482.6,731.9,481.8,732.1,480.2,732.5z M464,723.8c3.8-0.8,5.7-1.2,9.5-2.1c-3.1-5.1-4.6-7.7-7.6-12.9c-0.2,0-0.3,0.1-0.4,0.1 C465,714.8,464.7,717.8,464,723.8z"></path> <path class="st29" d="M499.4,696.2c0.4,1.1,0.6,1.7,0.9,2.8c-3.7,1.3-5.6,1.9-9.4,3c3.1,10.1,4.6,15.2,7.7,25.3 c-1.5,0.5-2.3,0.7-3.8,1.2c-3-10.1-4.4-15.2-7.4-25.4c-3.8,1.1-5.7,1.6-9.5,2.6c-0.3-1.2-0.5-1.7-0.8-2.9 C486.1,700.5,490.6,699.2,499.4,696.2z"></path> <path class="st29" d="M515.1,721.9c-3.3-9.2-6.6-18.5-9.9-27.7c1.4-0.5,2.1-0.8,3.5-1.3c3.4,9.2,6.8,18.4,10.2,27.6 C517.3,721,516.6,721.3,515.1,721.9z"></path> <path class="st29" d="M539,712.7c-3.5,1.5-6.5,1.9-9.2,1.1c-2.6-0.8-4.6-2.8-5.9-6.1c-1.4-3.4-2-5.1-3.4-8.6 c-1.3-3.3-1.3-6.1-0.1-8.5c1.2-2.4,3.4-4.2,6.6-5.6c0.1,0,0.1-0.1,0.2-0.1c3.2-1.4,6-1.8,8.6-1.1c2.6,0.7,4.6,2.6,6.2,5.8 c1.6,3.3,2.4,5,4,8.3c1.5,3.2,1.7,6.1,0.5,8.6c-1.2,2.5-3.6,4.5-7,6.1C539.2,712.6,539.1,712.7,539,712.7z M537.8,710 c0.1,0,0.1-0.1,0.2-0.1c2.5-1.1,4.1-2.5,4.8-4.1c0.7-1.6,0.5-3.7-0.6-6.1c-1.6-3.4-2.4-5.1-3.9-8.4c-1.1-2.4-2.5-3.9-4.1-4.4 c-1.6-0.5-3.6-0.2-5.9,0.8c-0.1,0-0.1,0.1-0.2,0.1c-2.3,1-3.9,2.3-4.6,3.9c-0.7,1.5-0.6,3.6,0.5,6.1c1.4,3.4,2.1,5.2,3.5,8.6 c1,2.5,2.4,4.1,4.1,4.6C533.2,711.4,535.3,711.1,537.8,710z"></path> <path class="st29" d="M558.7,702.8c-4.4-8.7-8.9-17.4-13.3-26.2c2-1,3-1.6,4.9-2.6c8.9,6.5,13.5,9.6,23,15.5 c0.2-0.1,0.3-0.1,0.4-0.2c-5-8.6-7.5-12.9-12.4-21.5c1.3-0.7,1.9-1.1,3.1-1.9c5,8.4,10,16.8,15,25.2c-2.1,1.3-3.1,1.9-5.2,3.1 c-9.5-5.9-14.1-9-23.1-15.5c-0.2,0.1-0.2,0.1-0.4,0.2c4.6,8.8,6.9,13.2,11.5,22C560.8,701.7,560.1,702.1,558.7,702.8z"></path> <path class="st29" d="M605.2,673.9c-3.1-2.2-4.7-3.3-7.7-5.6c-3.9,2.8-5.9,4.2-9.9,6.9c1,3.7,1.4,5.6,2.3,9.3 c-1.5,1-2.2,1.5-3.7,2.4c-2.2-10.1-4.6-20.3-7.4-30.3c1.9-1.3,2.9-2,4.8-3.3c8.2,6.2,16.6,12.2,25.2,17.9 C607.3,672.4,606.6,672.9,605.2,673.9z M586.7,672.2c3.3-2.2,5-3.4,8.2-5.7c-4.8-3.6-7.2-5.4-11.9-9.1c-0.2,0.1-0.2,0.2-0.4,0.3 C584.3,663.5,585.1,666.4,586.7,672.2z"></path> <path class="st29" d="M616.4,661.5c5.1-4.1,7.6-6.2,12.5-10.6c0.8,0.9,1.2,1.3,1.9,2.2c-6.2,5.5-9.4,8.2-15.9,13.3 c-5.9-7.8-11.9-15.5-17.8-23.3c1.2-0.9,1.8-1.4,3-2.4C606.7,649.1,609.9,653.2,616.4,661.5z"></path> <path class="st29" d="M648.2,632.7c4.7-4.8,7-7.3,11.5-12.3c0.9,0.8,1.3,1.2,2.2,2c-5.7,6.4-8.6,9.5-14.5,15.4 c-6.8-7-13.6-14-20.4-21c1.1-1.1,1.7-1.7,2.8-2.8C637,621.5,640.8,625.2,648.2,632.7z"></path> <path class="st29" d="M680.2,599.9c-3.7-1.2-5.5-1.8-9.1-3c-3.2,4.1-4.8,6.1-8,10c1.9,3.4,2.9,5,4.7,8.4c-1.2,1.4-1.8,2.1-3,3.6 c-4.8-9.3-9.8-18.4-15.1-27.4c1.6-1.9,2.3-2.9,3.9-4.8c9.7,3.5,19.6,6.6,29.5,9.5C681.9,597.7,681.3,598.5,680.2,599.9z M661.5,604.3c2.7-3.3,4-4.9,6.6-8.3c-5.7-2-8.5-3-14.1-5.1c-0.1,0.2-0.2,0.2-0.3,0.4C656.9,596.4,658.5,599,661.5,604.3z"></path> <path class="st29" d="M686.2,565.2c3.2-3.5,6.3-4.3,9.3-2.5c0.1,0.1,0.2,0.1,0.3,0.2c2.1,1.3,3.3,3.2,3.3,5.7 c0.1,2.5-0.9,5.4-3,8.5c-3.2,4.9-4.8,7.4-8.2,12.1c-7.9-5.7-15.8-11.4-23.6-17.1c2.7-3.9,4.1-5.9,6.7-9.9c1.9-3,3.9-4.9,6-5.8 c2.1-0.9,4.1-0.8,6.1,0.5c0.2,0.1,0.2,0.1,0.4,0.2c2.6,1.6,3.4,4.3,2.2,7.9C686,565.1,686.1,565.1,686.2,565.2z M681.2,560.6 c-1.3-0.9-2.6-1-3.9-0.5c-1.2,0.5-2.5,1.8-3.8,3.8c-1.8,2.7-2.7,4-4.5,6.7c3.2,2.3,4.9,3.4,8.1,5.7c1.9-2.7,2.8-4.1,4.6-6.9 c1.4-2.1,2-3.9,2-5.2c-0.1-1.4-0.8-2.5-2.2-3.4C681.4,560.7,681.3,560.7,681.2,560.6z M693.3,566.6c-0.1-0.1-0.2-0.1-0.3-0.2 c-1.4-0.9-2.8-1.1-4.1-0.6c-1.3,0.5-2.6,1.9-3.9,4c-2.1,3.3-3.2,4.9-5.4,8.1c3.4,2.4,5.1,3.6,8.5,6c2.3-3.3,3.4-5,5.6-8.4 c1.4-2.2,2.1-4,2-5.4C695.6,568.8,694.8,567.6,693.3,566.6z"></path> </g> </g> </g> </svg> 