<?xml version="1.0" encoding="UTF-8" standalone="no"?>
<svg
   xmlns:dc="http://purl.org/dc/elements/1.1/"
   xmlns:cc="http://creativecommons.org/ns#"
   xmlns:rdf="http://www.w3.org/1999/02/22-rdf-syntax-ns#"
   xmlns:svg="http://www.w3.org/2000/svg"
   xmlns="http://www.w3.org/2000/svg"
   xmlns:sodipodi="http://sodipodi.sourceforge.net/DTD/sodipodi-0.dtd"
   xmlns:inkscape="http://www.inkscape.org/namespaces/inkscape"
   version="1.1"
   x="0px"
   y="0px"
   viewBox="0 0 482.89999 105"
   xml:space="preserve"
   id="svg111"
   sodipodi:docname="CCIT_Logo.svg"
   width="482.89999"
   height="105"
   inkscape:version="1.0.2-2 (e86c870879, 2021-01-15)"
   inkscape:export-filename="D:\Dropbox (CINI)\- CybersecNatLab - CyberChallenge.IT 2022 - Public\Comunicazione\Press-Kit\CCIT_Logo.png"
   inkscape:export-xdpi="368"
   inkscape:export-ydpi="368"><metadata
   id="metadata117"><rdf:RDF><cc:Work
       rdf:about=""><dc:format>image/svg+xml</dc:format><dc:type
         rdf:resource="http://purl.org/dc/dcmitype/StillImage" /><dc:title></dc:title></cc:Work></rdf:RDF></metadata><defs
   id="defs115" /><sodipodi:namedview
   pagecolor="#ffffff"
   bordercolor="#666666"
   borderopacity="1"
   objecttolerance="10"
   gridtolerance="10"
   guidetolerance="10"
   inkscape:pageopacity="0"
   inkscape:pageshadow="2"
   inkscape:window-width="1688"
   inkscape:window-height="1336"
   id="namedview113"
   showgrid="false"
   fit-margin-top="0"
   fit-margin-left="0"
   fit-margin-right="0"
   fit-margin-bottom="0"
   inkscape:zoom="1.6877171"
   inkscape:cx="215.5758"
   inkscape:cy="71.210328"
   inkscape:window-x="1707"
   inkscape:window-y="16"
   inkscape:window-maximized="0"
   inkscape:current-layer="svg111" />
<style
   type="text/css"
   id="style2">
	.st0{fill:#1B4778;}
	.st1{fill:#FFFFFF;}
	.st2{display:none;}
	.st3{display:inline;fill:none;stroke:#C6C6C5;stroke-width:0.25;stroke-miterlimit:10;}
	.st4{display:inline;fill:#C6C6C5;}
	.st5{font-family:'GothamLight';}
	.st6{font-size:6px;}
	.st7{display:inline;}
	.st8{fill:none;stroke:#E20613;stroke-width:0.15;stroke-miterlimit:10;}
</style>
<g
   id="Sfondo"
   transform="translate(-24,-24)">
</g>
<g
   id="Italia"
   transform="translate(-24,-24)">
</g>
<g
   id="Livello_1"
   transform="translate(-24,-24)">
</g>
<g
   id="Logo"
   transform="translate(-24,-24)">
	<g
   id="g81">
		<rect
   x="60"
   y="24"
   class="st0"
   width="18"
   height="3"
   id="rect7" />
		<rect
   x="45"
   y="30"
   class="st0"
   width="48"
   height="3"
   id="rect9" />
		<rect
   x="27"
   y="36"
   class="st0"
   width="30"
   height="3"
   id="rect11" />
		<rect
   x="69"
   y="36"
   class="st0"
   width="42"
   height="3"
   id="rect13" />
		<rect
   x="75"
   y="42"
   class="st0"
   width="39"
   height="3"
   id="rect15" />
		<rect
   x="75"
   y="66"
   class="st0"
   width="39"
   height="3"
   id="rect17" />
		<rect
   x="51"
   y="96"
   class="st0"
   width="39"
   height="3"
   id="rect19" />
		<rect
   x="48"
   y="120"
   class="st0"
   width="42"
   height="3"
   id="rect21" />
		<rect
   x="30"
   y="102"
   class="st0"
   width="60"
   height="3"
   id="rect23" />
		<rect
   x="80.900002"
   y="72"
   class="st0"
   width="33.099998"
   height="3"
   id="rect25" />
		<rect
   x="90"
   y="78"
   class="st0"
   width="24"
   height="3"
   id="rect27" />
		<rect
   x="102"
   y="84"
   class="st0"
   width="12"
   height="3"
   id="rect29" />
		<rect
   x="69"
   y="48"
   class="st0"
   width="45"
   height="3"
   id="rect31" />
		<rect
   x="72"
   y="60"
   class="st0"
   width="42"
   height="3"
   id="rect33" />
		<rect
   x="66"
   y="54"
   class="st0"
   width="48"
   height="3"
   id="rect35" />
		<rect
   x="24"
   y="42"
   class="st0"
   width="15"
   height="3"
   id="rect37" />
		<rect
   x="24"
   y="60"
   class="st0"
   width="12"
   height="3"
   id="rect39" />
		<rect
   x="42"
   y="60"
   class="st0"
   width="9"
   height="3"
   id="rect41" />
		<rect
   x="96"
   y="90"
   class="st0"
   width="6"
   height="3"
   id="rect43" />
		<rect
   x="96"
   y="102"
   class="st0"
   width="12"
   height="3"
   id="rect45" />
		<rect
   x="108"
   y="90"
   class="st0"
   width="6"
   height="3"
   id="rect47" />
		<rect
   x="24"
   y="54"
   class="st0"
   width="9"
   height="3"
   id="rect49" />
		<rect
   x="24"
   y="48"
   class="st0"
   width="9"
   height="3"
   id="rect51" />
		<rect
   x="24"
   y="66"
   class="st0"
   width="30"
   height="3"
   id="rect53" />
		<rect
   x="51"
   y="90"
   class="st0"
   width="33"
   height="3"
   id="rect55" />
		<rect
   x="57"
   y="126"
   class="st0"
   width="24"
   height="3"
   id="rect57" />
		<rect
   x="51"
   y="84"
   class="st0"
   width="24"
   height="3"
   id="rect59" />
		<rect
   x="33"
   y="108"
   class="st0"
   width="33"
   height="3"
   id="rect61" />
		<rect
   x="39"
   y="114"
   class="st0"
   width="36"
   height="3"
   id="rect63" />
		<rect
   x="24"
   y="72"
   class="st0"
   width="36"
   height="3"
   id="rect65" />
		<rect
   x="24"
   y="78"
   class="st0"
   width="42"
   height="3"
   id="rect67" />
		<rect
   x="24"
   y="84"
   class="st0"
   width="21"
   height="3"
   id="rect69" />
		<rect
   x="24"
   y="90"
   class="st0"
   width="18"
   height="3"
   id="rect71" />
		<rect
   x="99"
   y="96"
   class="st0"
   width="12"
   height="3"
   id="rect73" />
		<rect
   x="87"
   y="114"
   class="st0"
   width="12"
   height="3"
   id="rect75" />
		<rect
   x="87"
   y="108"
   class="st0"
   width="18"
   height="3"
   id="rect77" />
		<rect
   x="26.9"
   y="96"
   class="st0"
   width="15"
   height="3"
   id="rect79" />
	</g>
	<path
   class="st0"
   d="m 154.7,75.6 c -2.7,0 -5.2,-0.5 -7.5,-1.5 -2.3,-1 -4.3,-2.4 -6,-4.1 -1.7,-1.7 -3,-3.8 -3.9,-6.2 -0.9,-2.4 -1.4,-4.9 -1.4,-7.6 v -0.1 c 0,-2.7 0.5,-5.2 1.4,-7.6 1,-2.4 2.3,-4.5 3.9,-6.2 1.7,-1.8 3.7,-3.2 6,-4.2 2.3,-1 4.8,-1.5 7.6,-1.5 1.7,0 3.2,0.1 4.6,0.4 1.4,0.3 2.6,0.7 3.8,1.2 1.2,0.5 2.3,1.2 3.3,1.9 1,0.7 2,1.6 3,2.5 l -2,2.1 c -0.8,-0.8 -1.7,-1.5 -2.6,-2.2 -0.9,-0.7 -1.9,-1.3 -2.9,-1.8 -1,-0.5 -2.1,-0.9 -3.3,-1.2 -1.2,-0.3 -2.5,-0.4 -3.9,-0.4 -2.3,0 -4.4,0.4 -6.3,1.3 -1.9,0.9 -3.6,2.1 -5,3.6 -1.4,1.5 -2.5,3.3 -3.3,5.4 -0.8,2.1 -1.2,4.3 -1.2,6.6 v 0.1 c 0,2.4 0.4,4.6 1.2,6.7 0.8,2.1 2,3.9 3.4,5.4 1.4,1.5 3.1,2.7 5,3.6 1.9,0.9 4.1,1.3 6.3,1.3 2.7,0 5.1,-0.5 7.1,-1.5 2,-1 4,-2.5 5.9,-4.4 l 1.9,1.8 c -1,1 -2,1.9 -3.1,2.7 -1.1,0.8 -2.2,1.5 -3.4,2.1 -1.2,0.6 -2.5,1 -3.9,1.4 -1.5,0.3 -3,0.4 -4.7,0.4 z M 189.6,60 173.4,37.2 h 3.5 L 191,57.5 205.2,37.2 h 3.3 L 192.4,60 v 15 h -2.8 z m 24,-22.8 h 15.6 c 2.2,0 4.1,0.3 5.7,0.9 1.7,0.6 3,1.4 4.1,2.5 1.6,1.6 2.4,3.6 2.4,6 v 0.1 c 0,1.3 -0.2,2.4 -0.6,3.4 -0.4,1 -0.9,1.8 -1.5,2.5 -0.6,0.7 -1.3,1.3 -2.1,1.8 -0.8,0.5 -1.5,0.9 -2.3,1.2 1.1,0.3 2.2,0.7 3.2,1.2 1,0.5 1.9,1.1 2.7,1.8 0.8,0.7 1.4,1.6 1.9,2.6 0.5,1 0.7,2.1 0.7,3.4 v 0.1 c 0,1.6 -0.3,3 -1,4.3 -0.6,1.3 -1.6,2.4 -2.7,3.2 -1.2,0.9 -2.6,1.6 -4.3,2 -1.7,0.4 -3.3,0.8 -5.4,0.8 h -16.4 z m 15.3,17.5 c 1.4,0 2.7,-0.2 3.9,-0.5 1.2,-0.3 2.2,-0.8 3.1,-1.5 0.9,-0.7 1.5,-1.5 2,-2.4 0.5,-1 0.7,-2.1 0.7,-3.4 v -0.1 c 0,-2.1 -0.8,-3.8 -2.4,-5.1 -1.6,-1.3 -4,-1.9 -7,-1.9 h -12.7 v 15 h 12.4 z m 1.3,17.8 c 3.2,0 5.8,-0.7 7.7,-2.1 1.9,-1.4 2.9,-3.3 2.9,-5.7 v -0.1 c 0,-2.3 -1,-4.2 -2.9,-5.4 -2,-1.3 -4.8,-1.9 -8.6,-1.9 h -12.8 v 15.2 z m 21.4,-35.3 h 26.9 v 2.5 h -24.1 v 15 h 21.7 v 2.5 h -21.7 v 15.2 h 24.4 V 75 h -27.2 z m 34.9,0 h 15.9 c 2.3,0 4.4,0.3 6.2,1 1.8,0.7 3.3,1.6 4.4,2.7 0.9,0.9 1.6,2 2.1,3.2 0.5,1.2 0.8,2.5 0.8,3.9 v 0.1 c 0,1.6 -0.3,3 -0.8,4.2 -0.5,1.2 -1.3,2.3 -2.3,3.2 -1,0.9 -2.2,1.6 -3.5,2.2 -1.4,0.6 -2.8,0.9 -4.4,1.2 L 317.3,75 h -3.6 l -12,-15.7 h -0.1 -12.3 V 75 h -2.8 z M 302,56.8 c 1.6,0 3.1,-0.2 4.4,-0.6 1.4,-0.4 2.5,-1 3.5,-1.7 1,-0.7 1.7,-1.6 2.3,-2.7 0.6,-1.1 0.8,-2.3 0.8,-3.7 V 48 c 0,-2.6 -0.9,-4.6 -2.8,-6.1 -1.9,-1.5 -4.6,-2.2 -8,-2.2 h -12.9 v 17.1 z m -147.3,63.8 c -2.7,0 -5.2,-0.5 -7.5,-1.5 -2.3,-1 -4.3,-2.4 -6,-4.1 -1.7,-1.7 -3,-3.8 -3.9,-6.2 -0.9,-2.4 -1.4,-4.9 -1.4,-7.6 v -0.1 c 0,-2.7 0.5,-5.2 1.4,-7.6 1,-2.4 2.3,-4.5 3.9,-6.2 1.7,-1.8 3.7,-3.2 6,-4.2 2.3,-1 4.8,-1.5 7.6,-1.5 1.7,0 3.2,0.1 4.6,0.4 1.4,0.3 2.6,0.7 3.8,1.2 1.2,0.5 2.3,1.2 3.3,1.9 1,0.7 2,1.6 3,2.5 l -2,2.1 c -0.8,-0.8 -1.7,-1.5 -2.6,-2.2 -0.9,-0.7 -1.9,-1.3 -2.9,-1.8 -1,-0.5 -2.1,-0.9 -3.3,-1.2 -1.2,-0.3 -2.5,-0.4 -3.9,-0.4 -2.3,0 -4.4,0.4 -6.3,1.3 -1.9,0.9 -3.6,2.1 -5,3.6 -1.4,1.5 -2.5,3.3 -3.3,5.4 -0.8,2.1 -1.2,4.3 -1.2,6.6 v 0.1 c 0,2.4 0.4,4.6 1.2,6.7 0.8,2.1 2,3.9 3.4,5.4 1.4,1.5 3.1,2.7 5,3.6 1.9,0.9 4.1,1.3 6.3,1.3 2.7,0 5.1,-0.5 7.1,-1.5 2,-1 4,-2.5 5.9,-4.4 l 1.9,1.8 c -1,1 -2,1.9 -3.1,2.7 -1.1,0.8 -2.2,1.5 -3.4,2.1 -1.2,0.6 -2.5,1 -3.9,1.4 -1.5,0.3 -3,0.4 -4.7,0.4 z m 21.4,-38.4 h 2.8 v 17.5 h 25.2 V 82.2 h 2.8 V 120 h -2.8 V 102.3 H 178.9 V 120 h -2.8 z m 54,-0.3 h 2.7 l 17.6,38.1 h -3.1 l -4.8,-10.6 h -22.3 l -4.8,10.6 h -2.9 z m 11.2,25 -9.9,-21.9 -10,21.9 z M 256,82.2 h 2.8 v 35.3 H 281 v 2.5 h -25 z m 30.5,0 h 2.8 v 35.3 h 22.2 v 2.5 h -25 z m 30.5,0 h 26.9 v 2.5 h -24.1 v 15 h 21.7 v 2.5 h -21.7 v 15.2 h 24.4 v 2.5 H 317 Z m 32.8,0 h 2.6 l 26.1,32.9 V 82.2 h 2.7 V 120 h -2.1 L 352.5,86.4 V 120 h -2.7 z m 56.5,38.4 c -3,0 -5.7,-0.5 -8,-1.5 -2.4,-1 -4.3,-2.4 -6,-4.2 -1.6,-1.8 -2.9,-3.8 -3.7,-6.2 -0.9,-2.4 -1.3,-4.9 -1.3,-7.5 v -0.1 c 0,-2.6 0.4,-5 1.3,-7.4 0.9,-2.4 2.1,-4.4 3.8,-6.2 1.6,-1.8 3.6,-3.2 5.9,-4.3 2.3,-1.1 4.9,-1.6 7.7,-1.6 1.5,0 3,0.1 4.2,0.3 1.3,0.2 2.5,0.5 3.6,1 1.1,0.4 2.1,1 3.1,1.6 1,0.6 2,1.3 2.9,2.1 l -1.8,2.1 c -1.5,-1.3 -3.2,-2.4 -5,-3.2 -1.9,-0.9 -4.3,-1.3 -7.1,-1.3 -2.3,0 -4.4,0.5 -6.3,1.3 -1.9,0.8 -3.6,2.1 -4.9,3.7 -1.3,1.6 -2.5,3.3 -3.2,5.4 -0.8,2 -1.1,4.2 -1.1,6.5 v 0.1 c 0,2.4 0.4,4.7 1.1,6.8 0.7,2.1 1.8,3.9 3.2,5.4 1.4,1.5 3.1,2.7 5.1,3.6 2,0.9 4.3,1.3 6.8,1.3 1.2,0 2.4,-0.1 3.5,-0.3 1.2,-0.2 2.2,-0.5 3.3,-0.9 1,-0.4 2,-0.9 2.9,-1.4 0.9,-0.5 1.7,-1.1 2.4,-1.6 V 103 h -12.6 v -2.5 h 15.3 V 115 c -1.7,1.5 -3.9,2.8 -6.4,4 -2.8,1.1 -5.6,1.6 -8.7,1.6 z M 428,82.2 h 26.9 v 2.5 h -24.1 v 15 h 21.7 v 2.5 h -21.7 v 15.2 h 24.4 v 2.5 H 428 Z m 41.4,0 h 2.8 V 120 h -2.8 z m -9,35.1 h 2.8 v 2.7 h -2.8 z m 30.5,-32.6 h -13.2 v -2.5 h 29.2 v 2.5 H 493.7 V 120 h -2.8 z"
   id="path83" />
</g>
<g
   id="Light"
   transform="translate(-24,-24)">
</g>
<g
   id="Ingombro"
   class="st2"
   transform="translate(-24,-24)">
	<rect
   x="24"
   class="st3"
   width="90"
   height="24"
   id="rect87"
   y="0" />
	<rect
   x="0"
   transform="rotate(180,12,12)"
   class="st3"
   width="24"
   height="24"
   id="rect89"
   y="0" />
	<rect
   x="0"
   y="132"
   transform="rotate(180,12,144)"
   class="st3"
   width="24"
   height="24"
   id="rect91" />
	<rect
   x="24"
   y="132"
   transform="rotate(180,69,144)"
   class="st3"
   width="90"
   height="24"
   id="rect93" />
	<rect
   x="138"
   y="132"
   transform="rotate(180,322.12445,144)"
   class="st3"
   width="368.20001"
   height="24"
   id="rect95" />
	<rect
   x="138"
   transform="rotate(180,322.12445,12)"
   class="st3"
   width="368.20001"
   height="24"
   id="rect97"
   y="0" />
	<rect
   x="0"
   y="24"
   transform="rotate(180,12,78)"
   class="st3"
   width="24"
   height="108"
   id="rect99" />
	<rect
   x="114"
   y="24"
   transform="rotate(180,126,78)"
   class="st3"
   width="24"
   height="108"
   id="rect101" />
	<rect
   x="506"
   y="24"
   transform="rotate(180,518,78)"
   class="st3"
   width="24"
   height="108"
   id="rect103" />
	<text
   transform="translate(26.367,13.0497)"
   class="st4 st5 st6"
   id="text105">a</text>
	<text
   transform="translate(10.2775,21.1396)"
   class="st4 st5 st6"
   id="text107">a</text>
</g>
<g
   id="Grid_x5F_12"
   class="st2"
   transform="translate(-24,-24)">
</g>
</svg>
